<svg xmlns="http://www.w3.org/2000/svg" xmlns:xlink="http://www.w3.org/1999/xlink" id="processonSvg1000" viewBox="41.758502138658514 47.0 1409.3803867502304 903.375" width="1409.3803867502304" height="903.375"><defs id="ProcessOnDefs1001"><marker id="ProcessOnMarker1148" markerUnits="userSpaceOnUse" orient="auto" markerWidth="16.23606797749979" markerHeight="10.550836550532098" viewBox="-1.0 -1.3763819204711736 16.23606797749979 10.550836550532098" refX="15.23606797749979" refY="3.8990363547948754"><path id="ProcessOnPath1149" d="M12.0 3.8990363547948754L0.0 7.798072709589751V0.0Z" stroke="#323232" stroke-width="2.0" fill="#323232" transform="matrix(-1.0,1.2246467991473532E-16,-1.2246467991473532E-16,-1.0,14.23606797749979,7.798072709589751)"/></marker><marker id="ProcessOnMarker1150" markerUnits="userSpaceOnUse" orient="auto" markerWidth="16.23606797749979" markerHeight="10.550836550532098" viewBox="-1.0 -1.3763819204711736 16.23606797749979 10.550836550532098" refX="-1.0" refY="3.8990363547948754"><path id="ProcessOnPath1151" d="M12.0 3.8990363547948754L0.0 7.798072709589751V0.0Z" stroke="#323232" stroke-width="2.0" fill="#323232" transform="matrix(1.0,0.0,0.0,1.0,0.0,0.0)"/></marker><marker id="ProcessOnMarker1154" markerUnits="userSpaceOnUse" orient="auto" markerWidth="16.23606797749979" markerHeight="10.550836550532098" viewBox="-1.0 -1.3763819204711736 16.23606797749979 10.550836550532098" refX="15.23606797749979" refY="3.8990363547948754"><path id="ProcessOnPath1155" d="M12.0 3.8990363547948754L0.0 7.798072709589751V0.0Z" stroke="#323232" stroke-width="2.0" fill="#323232" transform="matrix(-1.0,1.2246467991473532E-16,-1.2246467991473532E-16,-1.0,14.23606797749979,7.798072709589751)"/></marker><marker id="ProcessOnMarker1156" markerUnits="userSpaceOnUse" orient="auto" markerWidth="16.23606797749979" markerHeight="10.550836550532098" viewBox="-1.0 -1.3763819204711736 16.23606797749979 10.550836550532098" refX="-1.0" refY="3.8990363547948754"><path id="ProcessOnPath1157" d="M12.0 3.8990363547948754L0.0 7.798072709589751V0.0Z" stroke="#323232" stroke-width="2.0" fill="#323232" transform="matrix(1.0,0.0,0.0,1.0,0.0,0.0)"/></marker><marker id="ProcessOnMarker1160" markerUnits="userSpaceOnUse" orient="auto" markerWidth="16.23606797749979" markerHeight="10.550836550532098" viewBox="-1.0 -1.3763819204711736 16.23606797749979 10.550836550532098" refX="15.23606797749979" refY="3.8990363547948754"><path id="ProcessOnPath1161" d="M12.0 3.8990363547948754L0.0 7.798072709589751V0.0Z" stroke="#323232" stroke-width="2.0" fill="#323232" transform="matrix(-1.0,1.2246467991473532E-16,-1.2246467991473532E-16,-1.0,14.23606797749979,7.798072709589751)"/></marker><marker id="ProcessOnMarker1162" markerUnits="userSpaceOnUse" orient="auto" markerWidth="16.23606797749979" markerHeight="10.550836550532098" viewBox="-1.0 -1.3763819204711736 16.23606797749979 10.550836550532098" refX="-1.0" refY="3.8990363547948754"><path id="ProcessOnPath1163" d="M12.0 3.8990363547948754L0.0 7.798072709589751V0.0Z" stroke="#323232" stroke-width="2.0" fill="#323232" transform="matrix(1.0,0.0,0.0,1.0,0.0,0.0)"/></marker></defs><g id="ProcessOnG1002"><path id="ProcessOnPath1003" d="M41.758502138658514 47.0H1451.138888888889V950.375H41.758502138658514V47.0Z" fill="#ffffff"/><g id="ProcessOnG1004"><g id="ProcessOnG1005" transform="matrix(1.0,0.0,0.0,1.0,593.4180082139982,569.3289930555555)" opacity="1.0"><path id="ProcessOnPath1006" d="M0.0 4.0Q0.0 0.0 4.0 0.0L302.6639835720036 0.0Q306.6639835720036 0.0 306.6639835720036 4.0L306.6639835720036 356.8420138888889Q306.6639835720036 360.8420138888889 302.6639835720036 360.8420138888889L4.0 360.8420138888889Q0.0 360.8420138888889 0.0 356.8420138888889Z" stroke="#323232" stroke-width="2.0" stroke-dasharray="none" opacity="1.0" fill="#ffffff"/></g><g id="ProcessOnG1007" transform="matrix(1.0,0.0,0.0,1.0,61.758502138658514,569.125)" opacity="1.0"><path id="ProcessOnPath1008" d="M0.0 4.0Q0.0 0.0 4.0 0.0L306.7414978613415 0.0Q310.7414978613415 0.0 310.7414978613415 4.0L310.7414978613415 357.25Q310.7414978613415 361.25 306.7414978613415 361.25L4.0 361.25Q0.0 361.25 0.0 357.25Z" stroke="#323232" stroke-width="2.0" stroke-dasharray="none" opacity="1.0" fill="#ffffff"/></g><g id="ProcessOnG1009" transform="matrix(1.0,0.0,0.0,1.0,62.361111111111086,67.0)" opacity="1.0"><path id="ProcessOnPath1010" d="M0.0 4.0Q0.0 0.0 4.0 0.0L1364.7777777777778 0.0Q1368.7777777777778 0.0 1368.7777777777778 4.0L1368.7777777777778 401.0Q1368.7777777777778 405.0 1364.7777777777778 405.0L4.0 405.0Q0.0 405.0 0.0 401.0Z" stroke="#323232" stroke-width="2.0" stroke-dasharray="none" opacity="1.0" fill="#ffffff"/></g><g id="ProcessOnG1011" transform="matrix(1.0,0.0,0.0,1.0,291.4028349336991,145.25)" opacity="1.0"><path id="ProcessOnPath1012" d="M0.0 4.0Q0.0 0.0 4.0 0.0L111.0 0.0Q115.0 0.0 115.0 4.0L115.0 66.0Q115.0 70.0 111.0 70.0L4.0 70.0Q0.0 70.0 0.0 66.0Z" stroke="#323232" stroke-width="2.0" stroke-dasharray="none" opacity="1.0" fill="#b3ff66"/><g id="ProcessOnG1013" transform="matrix(1.0,0.0,0.0,1.0,10.0,23.125)"><text id="ProcessOnText1014" fill="#323232" font-weight="bold" font-style="normal" text-decoration="blink" font-family="Arial,宋体" text-anchor="middle" font-size="19" x="47.5" y="19.475">定位系统</text></g></g><g id="ProcessOnG1015" transform="matrix(1.0,0.0,0.0,1.0,92.25,289.25)" opacity="1.0"><path id="ProcessOnPath1016" d="M0.0 4.0Q0.0 0.0 4.0 0.0L111.0 0.0Q115.0 0.0 115.0 4.0L115.0 66.0Q115.0 70.0 111.0 70.0L4.0 70.0Q0.0 70.0 0.0 66.0Z" stroke="#323232" stroke-width="2.0" stroke-dasharray="none" opacity="1.0" fill="#99ccff"/><g id="ProcessOnG1017" transform="matrix(1.0,0.0,0.0,1.0,10.0,23.125)"><text id="ProcessOnText1018" fill="#323232" font-weight="bold" font-style="normal" text-decoration="blink" font-family="Arial,宋体" text-anchor="middle" font-size="19" x="47.5" y="19.475">能源</text></g></g><g id="ProcessOnG1019" transform="matrix(1.0,0.0,0.0,1.0,490.55566986739825,145.25)" opacity="1.0"><path id="ProcessOnPath1020" d="M0.0 4.0Q0.0 0.0 4.0 0.0L111.0 0.0Q115.0 0.0 115.0 4.0L115.0 66.0Q115.0 70.0 111.0 70.0L4.0 70.0Q0.0 70.0 0.0 66.0Z" stroke="#323232" stroke-width="2.0" stroke-dasharray="none" opacity="1.0" fill="#b3ff66"/><g id="ProcessOnG1021" transform="matrix(1.0,0.0,0.0,1.0,10.0,23.125)"><text id="ProcessOnText1022" fill="#323232" font-weight="bold" font-style="normal" text-decoration="blink" font-family="Arial,宋体" text-anchor="middle" font-size="19" x="47.5" y="19.475">气象卫星</text></g></g><g id="ProcessOnG1023" transform="matrix(1.0,0.0,0.0,1.0,888.8613397347965,145.25)" opacity="1.0"><path id="ProcessOnPath1024" d="M0.0 4.0Q0.0 0.0 4.0 0.0L111.0 0.0Q115.0 0.0 115.0 4.0L115.0 66.0Q115.0 70.0 111.0 70.0L4.0 70.0Q0.0 70.0 0.0 66.0Z" stroke="#323232" stroke-width="2.0" stroke-dasharray="none" opacity="1.0" fill="#b3ff66"/><g id="ProcessOnG1025" transform="matrix(1.0,0.0,0.0,1.0,10.0,23.125)"><text id="ProcessOnText1026" fill="#323232" font-weight="bold" font-style="normal" text-decoration="blink" font-family="Arial,宋体" text-anchor="middle" font-size="19" x="47.5" y="19.475">空间站</text></g></g><g id="ProcessOnG1027" transform="matrix(1.0,0.0,0.0,1.0,689.7085048010974,145.25)" opacity="1.0"><path id="ProcessOnPath1028" d="M0.0 4.0Q0.0 0.0 4.0 0.0L111.0 0.0Q115.0 0.0 115.0 4.0L115.0 66.0Q115.0 70.0 111.0 70.0L4.0 70.0Q0.0 70.0 0.0 66.0Z" stroke="#323232" stroke-width="2.0" stroke-dasharray="none" opacity="1.0" fill="#b3ff66"/><g id="ProcessOnG1029" transform="matrix(1.0,0.0,0.0,1.0,10.0,23.125)"><text id="ProcessOnText1030" fill="#323232" font-weight="bold" font-style="normal" text-decoration="blink" font-family="Arial,宋体" text-anchor="middle" font-size="19" x="47.5" y="19.475">遥感卫星</text></g></g><g id="ProcessOnG1031" transform="matrix(1.0,0.0,0.0,1.0,92.25,145.25)" opacity="1.0"><path id="ProcessOnPath1032" d="M0.0 4.0Q0.0 0.0 4.0 0.0L111.0 0.0Q115.0 0.0 115.0 4.0L115.0 66.0Q115.0 70.0 111.0 70.0L4.0 70.0Q0.0 70.0 0.0 66.0Z" stroke="#323232" stroke-width="2.0" stroke-dasharray="none" opacity="1.0" fill="#b3ff66"/><g id="ProcessOnG1033" transform="matrix(1.0,0.0,0.0,1.0,10.0,23.125)"><text id="ProcessOnText1034" fill="#323232" font-weight="bold" font-style="normal" text-decoration="blink" font-family="Arial,宋体" text-anchor="middle" font-size="19" x="47.5" y="19.475">通讯系统</text></g></g><g id="ProcessOnG1035" transform="matrix(1.0,0.0,0.0,1.0,291.25,289.25)" opacity="1.0"><path id="ProcessOnPath1036" d="M0.0 4.0Q0.0 0.0 4.0 0.0L111.0 0.0Q115.0 0.0 115.0 4.0L115.0 66.0Q115.0 70.0 111.0 70.0L4.0 70.0Q0.0 70.0 0.0 66.0Z" stroke="#323232" stroke-width="2.0" stroke-dasharray="none" opacity="1.0" fill="#99ccff"/><g id="ProcessOnG1037" transform="matrix(1.0,0.0,0.0,1.0,10.0,23.125)"><text id="ProcessOnText1038" fill="#323232" font-weight="bold" font-style="normal" text-decoration="blink" font-family="Arial,宋体" text-anchor="middle" font-size="19" x="47.5" y="19.475">采矿</text></g></g><g id="ProcessOnG1039" transform="matrix(1.0,0.0,0.0,1.0,490.25,289.25)" opacity="1.0"><path id="ProcessOnPath1040" d="M0.0 4.0Q0.0 0.0 4.0 0.0L111.0 0.0Q115.0 0.0 115.0 4.0L115.0 66.0Q115.0 70.0 111.0 70.0L4.0 70.0Q0.0 70.0 0.0 66.0Z" stroke="#323232" stroke-width="2.0" stroke-dasharray="none" opacity="1.0" fill="#99ccff"/><g id="ProcessOnG1041" transform="matrix(1.0,0.0,0.0,1.0,10.0,23.125)"><text id="ProcessOnText1042" fill="#323232" font-weight="bold" font-style="normal" text-decoration="blink" font-family="Arial,宋体" text-anchor="middle" font-size="19" x="47.5" y="19.475">化工</text></g></g><g id="ProcessOnG1043" transform="matrix(1.0,0.0,0.0,1.0,689.25,289.25)" opacity="1.0"><path id="ProcessOnPath1044" d="M0.0 4.0Q0.0 0.0 4.0 0.0L111.0 0.0Q115.0 0.0 115.0 4.0L115.0 66.0Q115.0 70.0 111.0 70.0L4.0 70.0Q0.0 70.0 0.0 66.0Z" stroke="#323232" stroke-width="2.0" stroke-dasharray="none" opacity="1.0" fill="#99ccff"/><g id="ProcessOnG1045" transform="matrix(1.0,0.0,0.0,1.0,10.0,23.125)"><text id="ProcessOnText1046" fill="#323232" font-weight="bold" font-style="normal" text-decoration="blink" font-family="Arial,宋体" text-anchor="middle" font-size="19" x="47.5" y="19.475">农牧</text></g></g><g id="ProcessOnG1047" transform="matrix(1.0,0.0,0.0,1.0,888.25,286.25)" opacity="1.0"><path id="ProcessOnPath1048" d="M0.0 4.0Q0.0 0.0 4.0 0.0L111.0 0.0Q115.0 0.0 115.0 4.0L115.0 66.0Q115.0 70.0 111.0 70.0L4.0 70.0Q0.0 70.0 0.0 66.0Z" stroke="#323232" stroke-width="2.0" stroke-dasharray="none" opacity="1.0" fill="#99ccff"/><g id="ProcessOnG1049" transform="matrix(1.0,0.0,0.0,1.0,10.0,23.125)"><text id="ProcessOnText1050" fill="#323232" font-weight="bold" font-style="normal" text-decoration="blink" font-family="Arial,宋体" text-anchor="middle" font-size="19" x="47.5" y="19.475">交通</text></g></g><g id="ProcessOnG1051" transform="matrix(1.0,0.0,0.0,1.0,86.25,402.25)" opacity="1.0"><path id="ProcessOnPath1052" d="M0.0 0.0L63.0 0.0L63.0 46.0L0.0 46.0Z" stroke="#323232" stroke-width="2.0" stroke-dasharray="none" opacity="1.0" fill="#99ccff"/><g id="ProcessOnG1053" transform="matrix(1.0,0.0,0.0,1.0,10.0,14.875)"><text id="ProcessOnText1054" fill="#000000" font-weight="normal" font-style="normal" text-decoration="blink" font-family="微软雅黑" text-anchor="middle" font-size="13" x="21.5" y="13.325">核电站</text></g></g><g id="ProcessOnG1055" transform="matrix(1.0,0.0,0.0,1.0,317.25,402.25)" opacity="1.0"><path id="ProcessOnPath1056" d="M0.0 0.0L63.0 0.0L63.0 46.0L0.0 46.0Z" stroke="#323232" stroke-width="2.0" stroke-dasharray="none" opacity="1.0" fill="#99ccff"/><g id="ProcessOnG1057" transform="matrix(1.0,0.0,0.0,1.0,10.0,14.875)"><text id="ProcessOnText1058" fill="#000000" font-weight="normal" font-style="normal" text-decoration="blink" font-family="微软雅黑" text-anchor="middle" font-size="13" x="21.5" y="13.325">矿场</text></g></g><g id="ProcessOnG1059" transform="matrix(1.0,0.0,0.0,1.0,474.25,402.25)" opacity="1.0"><path id="ProcessOnPath1060" d="M0.0 0.0L63.0 0.0L63.0 46.0L0.0 46.0Z" stroke="#323232" stroke-width="2.0" stroke-dasharray="none" opacity="1.0" fill="#99ccff"/><g id="ProcessOnG1061" transform="matrix(1.0,0.0,0.0,1.0,10.0,14.875)"><text id="ProcessOnText1062" fill="#000000" font-weight="normal" font-style="normal" text-decoration="blink" font-family="微软雅黑" text-anchor="middle" font-size="13" x="21.5" y="13.325">燃料</text></g></g><g id="ProcessOnG1063" transform="matrix(1.0,0.0,0.0,1.0,558.25,402.25)" opacity="1.0"><path id="ProcessOnPath1064" d="M0.0 0.0L63.0 0.0L63.0 46.0L0.0 46.0Z" stroke="#323232" stroke-width="2.0" stroke-dasharray="none" opacity="1.0" fill="#99ccff"/><g id="ProcessOnG1065" transform="matrix(1.0,0.0,0.0,1.0,10.0,14.875)"><text id="ProcessOnText1066" fill="#000000" font-weight="normal" font-style="normal" text-decoration="blink" font-family="微软雅黑" text-anchor="middle" font-size="13" x="21.5" y="13.325">空气</text></g></g><g id="ProcessOnG1067" transform="matrix(1.0,0.0,0.0,1.0,675.25,402.25)" opacity="1.0"><path id="ProcessOnPath1068" d="M0.0 0.0L63.0 0.0L63.0 46.0L0.0 46.0Z" stroke="#323232" stroke-width="2.0" stroke-dasharray="none" opacity="1.0" fill="#99ccff"/><g id="ProcessOnG1069" transform="matrix(1.0,0.0,0.0,1.0,10.0,14.875)"><text id="ProcessOnText1070" fill="#000000" font-weight="normal" font-style="normal" text-decoration="blink" font-family="微软雅黑" text-anchor="middle" font-size="13" x="21.5" y="13.325">农场</text></g></g><g id="ProcessOnG1071" transform="matrix(1.0,0.0,0.0,1.0,914.25,402.25)" opacity="1.0"><path id="ProcessOnPath1072" d="M0.0 0.0L63.0 0.0L63.0 46.0L0.0 46.0Z" stroke="#323232" stroke-width="2.0" stroke-dasharray="none" opacity="1.0" fill="#99ccff"/><g id="ProcessOnG1073" transform="matrix(1.0,0.0,0.0,1.0,10.0,14.875)"><text id="ProcessOnText1074" fill="#000000" font-weight="normal" font-style="normal" text-decoration="blink" font-family="微软雅黑" text-anchor="middle" font-size="13" x="21.5" y="13.325">轨道</text></g></g><g id="ProcessOnG1075" transform="matrix(1.0,0.0,0.0,1.0,988.4557613168722,402.25)" opacity="1.0"><path id="ProcessOnPath1076" d="M0.0 0.0L63.0 0.0L63.0 46.0L0.0 46.0Z" stroke="#323232" stroke-width="2.0" stroke-dasharray="none" opacity="1.0" fill="#99ccff"/><g id="ProcessOnG1077" transform="matrix(1.0,0.0,0.0,1.0,10.0,14.875)"><text id="ProcessOnText1078" fill="#000000" font-weight="normal" font-style="normal" text-decoration="blink" font-family="微软雅黑" text-anchor="middle" font-size="13" x="21.5" y="13.325">机场</text></g></g><g id="ProcessOnG1079" transform="matrix(1.0,0.0,0.0,1.0,839.1224279835393,402.25)" opacity="1.0"><path id="ProcessOnPath1080" d="M0.0 0.0L63.0 0.0L63.0 46.0L0.0 46.0Z" stroke="#323232" stroke-width="2.0" stroke-dasharray="none" opacity="1.0" fill="#99ccff"/><g id="ProcessOnG1081" transform="matrix(1.0,0.0,0.0,1.0,10.0,14.875)"><text id="ProcessOnText1082" fill="#000000" font-weight="normal" font-style="normal" text-decoration="blink" font-family="微软雅黑" text-anchor="middle" font-size="13" x="21.5" y="13.325">飞艇</text></g></g><g id="ProcessOnG1083"><path id="ProcessOnPath1084" d="M117.75 402.25L117.75 380.75L149.75 380.75L149.75 359.25" stroke="#323232" stroke-width="2.0" stroke-dasharray="none" fill="none"/></g><g id="ProcessOnG1085"><path id="ProcessOnPath1086" d="M348.75 402.25L348.75 380.75L348.75 380.75L348.75 359.25" stroke="#323232" stroke-width="2.0" stroke-dasharray="none" fill="none"/></g><g id="ProcessOnG1087"><path id="ProcessOnPath1088" d="M505.75 402.25L505.75 380.75L547.75 380.75L547.75 359.25" stroke="#323232" stroke-width="2.0" stroke-dasharray="none" fill="none"/></g><g id="ProcessOnG1089"><path id="ProcessOnPath1090" d="M589.75 402.25L589.75 380.75L547.75 380.75L547.75 359.25" stroke="#323232" stroke-width="2.0" stroke-dasharray="none" fill="none"/></g><g id="ProcessOnG1091"><path id="ProcessOnPath1092" d="M706.75 402.25L706.75 380.75L746.75 380.75L746.75 359.25" stroke="#323232" stroke-width="2.0" stroke-dasharray="none" fill="none"/></g><g id="ProcessOnG1093"><path id="ProcessOnPath1094" d="M945.7499999999995 402.25L945.7499999999995 379.25L945.75 379.25L945.75 356.25" stroke="#323232" stroke-width="2.0" stroke-dasharray="none" fill="none"/></g><g id="ProcessOnG1095"><path id="ProcessOnPath1096" d="M870.6224279835393 402.25L870.6224279835393 379.25L945.75 379.25L945.75 356.25" stroke="#323232" stroke-width="2.0" stroke-dasharray="none" fill="none"/></g><g id="ProcessOnG1097"><path id="ProcessOnPath1098" d="M1019.9557613168722 402.25L1019.9557613168722 379.25L945.75 379.25L945.75 356.25" stroke="#323232" stroke-width="2.0" stroke-dasharray="none" fill="none"/></g><g id="ProcessOnG1099" transform="matrix(1.0,0.0,0.0,1.0,567.75,70.69444444444444)" opacity="1.0"><path id="ProcessOnPath1100" d="M0.0 0.0L160.0 0.0L160.0 40.0L0.0 40.0Z" stroke="#000000" stroke-width="0.0" stroke-dasharray="none" opacity="1.0" fill="none"/><g id="ProcessOnG1101" transform="matrix(1.0,0.0,0.0,1.0,0.0,3.125)"><text id="ProcessOnText1102" fill="#000000" font-weight="bold" font-style="normal" text-decoration="blink" font-family="微软雅黑" text-anchor="middle" font-size="27" x="80.0" y="27.675">火星设施</text></g></g><g id="ProcessOnG1103" transform="matrix(1.0,0.0,0.0,1.0,160.15625,764.75)" opacity="1.0"><path id="ProcessOnPath1104" d="M0.0 4.0Q0.0 0.0 4.0 0.0L110.5 0.0Q114.5 0.0 114.5 4.0L114.5 66.0Q114.5 70.0 110.5 70.0L4.0 70.0Q0.0 70.0 0.0 66.0Z" stroke="#323232" stroke-width="2.0" stroke-dasharray="none" opacity="1.0" fill="#ffe6cc"/><g id="ProcessOnG1105" transform="matrix(1.0,0.0,0.0,1.0,10.0,23.125)"><text id="ProcessOnText1106" fill="#000000" font-weight="bold" font-style="normal" text-decoration="blink" font-family="微软雅黑" text-anchor="middle" font-size="19" x="47.25" y="19.475">发电站</text></g></g><g id="ProcessOnG1107" transform="matrix(1.0,0.0,0.0,1.0,83.59375,644.5)" opacity="1.0"><path id="ProcessOnPath1108" d="M0.0 4.0Q0.0 0.0 4.0 0.0L110.5 0.0Q114.5 0.0 114.5 4.0L114.5 66.0Q114.5 70.0 110.5 70.0L4.0 70.0Q0.0 70.0 0.0 66.0Z" stroke="#323232" stroke-width="2.0" stroke-dasharray="none" opacity="1.0" fill="#ffe6cc"/><g id="ProcessOnG1109" transform="matrix(1.0,0.0,0.0,1.0,10.0,23.125)"><text id="ProcessOnText1110" fill="#000000" font-weight="bold" font-style="normal" text-decoration="blink" font-family="微软雅黑" text-anchor="middle" font-size="19" x="47.25" y="19.475">采矿</text></g></g><g id="ProcessOnG1111" transform="matrix(1.0,0.0,0.0,1.0,232.022551583219,644.5)" opacity="1.0"><path id="ProcessOnPath1112" d="M0.0 4.0Q0.0 0.0 4.0 0.0L110.5 0.0Q114.5 0.0 114.5 4.0L114.5 66.0Q114.5 70.0 110.5 70.0L4.0 70.0Q0.0 70.0 0.0 66.0Z" stroke="#323232" stroke-width="2.0" stroke-dasharray="none" opacity="1.0" fill="#ffe6cc"/><g id="ProcessOnG1113" transform="matrix(1.0,0.0,0.0,1.0,10.0,23.125)"><text id="ProcessOnText1114" fill="#000000" font-weight="bold" font-style="normal" text-decoration="blink" font-family="微软雅黑" text-anchor="middle" font-size="19" x="47.25" y="19.475">精炼加工</text></g></g><g id="ProcessOnG1115" transform="matrix(1.0,0.0,0.0,1.0,184.92612606932926,874.8958333333333)" opacity="1.0"><path id="ProcessOnPath1116" d="M0.0 0.0L64.40625 0.0L64.40625 45.083333333333485L0.0 45.083333333333485Z" stroke="#323232" stroke-width="2.0" stroke-dasharray="none" opacity="1.0" fill="#ffffcc"/><g id="ProcessOnG1117" transform="matrix(1.0,0.0,0.0,1.0,10.0,14.416666666666742)"><text id="ProcessOnText1118" fill="#000000" font-weight="normal" font-style="normal" text-decoration="blink" font-family="微软雅黑" text-anchor="middle" font-size="13" x="22.203125" y="13.325">太阳能</text></g></g><g id="ProcessOnG1119"><path id="ProcessOnPath1120" d="M217.12925106932926 874.8958333333333L217.12925106932926 854.8229166666666L217.40625 854.8229166666666L217.40625 834.75" stroke="#323232" stroke-width="2.0" stroke-dasharray="none" fill="none"/></g><g id="ProcessOnG1121" transform="matrix(1.0,0.0,0.0,1.0,134.47406383666157,581.9444444444445)" opacity="1.0"><path id="ProcessOnPath1122" d="M0.0 0.0L160.0 0.0L160.0 40.0L0.0 40.0Z" stroke="#000000" stroke-width="0.0" stroke-dasharray="none" opacity="1.0" fill="none"/><g id="ProcessOnG1123" transform="matrix(1.0,0.0,0.0,1.0,0.0,3.125)"><text id="ProcessOnText1124" fill="#000000" font-weight="bold" font-style="normal" text-decoration="blink" font-family="微软雅黑" text-anchor="middle" font-size="27" x="80.0" y="27.675">小行星工厂</text></g></g><g id="ProcessOnG1125" transform="matrix(1.0,0.0,0.0,1.0,689.5,764.75)" opacity="1.0"><path id="ProcessOnPath1126" d="M0.0 4.0Q0.0 0.0 4.0 0.0L110.5 0.0Q114.5 0.0 114.5 4.0L114.5 66.0Q114.5 70.0 110.5 70.0L4.0 70.0Q0.0 70.0 0.0 66.0Z" stroke="#323232" stroke-width="2.0" stroke-dasharray="none" opacity="1.0" fill="#99ffff"/><g id="ProcessOnG1127" transform="matrix(1.0,0.0,0.0,1.0,10.0,23.125)"><text id="ProcessOnText1128" fill="#000000" font-weight="bold" font-style="normal" text-decoration="blink" font-family="微软雅黑" text-anchor="middle" font-size="19" x="47.25" y="19.475">太空拖车</text></g></g><g id="ProcessOnG1129" transform="matrix(1.0,0.0,0.0,1.0,760.2688131423972,644.1332465277777)" opacity="1.0"><path id="ProcessOnPath1130" d="M0.0 4.0Q0.0 0.0 4.0 0.0L110.5 0.0Q114.5 0.0 114.5 4.0L114.5 66.0Q114.5 70.0 110.5 70.0L4.0 70.0Q0.0 70.0 0.0 66.0Z" stroke="#323232" stroke-width="2.0" stroke-dasharray="none" opacity="1.0" fill="#99ffff"/><g id="ProcessOnG1131" transform="matrix(1.0,0.0,0.0,1.0,10.0,23.125)"><text id="ProcessOnText1132" fill="#000000" font-weight="bold" font-style="normal" text-decoration="blink" font-family="微软雅黑" text-anchor="middle" font-size="19" x="47.25" y="19.475">弹射系统</text></g></g><g id="ProcessOnG1133" transform="matrix(1.0,0.0,0.0,1.0,611.10986328125,644.1332465277777)" opacity="1.0"><path id="ProcessOnPath1134" d="M0.0 4.0Q0.0 0.0 4.0 0.0L110.5 0.0Q114.5 0.0 114.5 4.0L114.5 66.0Q114.5 70.0 110.5 70.0L4.0 70.0Q0.0 70.0 0.0 66.0Z" stroke="#323232" stroke-width="2.0" stroke-dasharray="none" opacity="1.0" fill="#99ffff"/><g id="ProcessOnG1135" transform="matrix(1.0,0.0,0.0,1.0,10.0,11.25)"><text id="ProcessOnText1136" fill="#000000" font-weight="bold" font-style="normal" text-decoration="blink" font-family="微软雅黑" text-anchor="middle" font-size="19" x="47.25" y="19.475">快速合点</text><text id="ProcessOnText1137" fill="#000000" font-weight="bold" font-style="normal" text-decoration="blink" font-family="微软雅黑" text-anchor="middle" font-size="19" x="47.25" y="43.225">运输</text></g></g><g id="ProcessOnG1138" transform="matrix(1.0,0.0,0.0,1.0,1245.8613397347965,664.75)" opacity="1.0"><path id="ProcessOnPath1139" d="M0.0 85.0C0.0 -28.333333333333332 170.0 -28.333333333333332 170.0 85.0C170.0 198.33333333333334 0.0 198.33333333333334 0.0 85.0Z" stroke="#323232" stroke-width="2.0" stroke-dasharray="none" opacity="1.0" fill="#4d9900"/><g id="ProcessOnG1140" transform="matrix(1.0,0.0,0.0,1.0,10.0,62.5)"><text id="ProcessOnText1141" fill="#000000" font-weight="bold" font-style="normal" text-decoration="blink" font-family="微软雅黑" text-anchor="middle" font-size="36" x="75.0" y="36.9">地球</text></g></g><g id="ProcessOnG1142" transform="matrix(1.0,0.0,0.0,1.0,654.125,581.9444444444445)" opacity="1.0"><path id="ProcessOnPath1143" d="M0.0 0.0L185.25 0.0L185.25 34.43489583333337L0.0 34.43489583333337Z" stroke="#000000" stroke-width="0.0" stroke-dasharray="none" opacity="1.0" fill="none"/><g id="ProcessOnG1144" transform="matrix(1.0,0.0,0.0,1.0,0.0,0.3424479166666856)"><text id="ProcessOnText1145" fill="#000000" font-weight="bold" font-style="normal" text-decoration="blink" font-family="微软雅黑" text-anchor="middle" font-size="27" x="92.625" y="27.675">星际运输系统</text></g></g><g id="ProcessOnG1146"><path id="ProcessOnPath1147" d="M387.7360679774998 749.75L482.9590041069991 749.75L482.9590041069991 749.75L578.1819402364983 749.75" stroke="#323232" stroke-width="2.0" stroke-dasharray="none" fill="none" marker-start="url(#ProcessOnMarker1148)" marker-end="url(#ProcessOnMarker1150)"/></g><g id="ProcessOnG1152"><path id="ProcessOnPath1153" d="M915.3180597635017 749.75L1072.9716657603992 749.75L1072.9716657603992 749.75L1230.6252717572968 749.75" stroke="#323232" stroke-width="2.0" stroke-dasharray="none" fill="none" marker-start="url(#ProcessOnMarker1154)" marker-end="url(#ProcessOnMarker1156)"/></g><g id="ProcessOnG1158"><path id="ProcessOnPath1159" d="M746.7500000000001 554.0929250780557L746.7500000000001 520.6644965277778L746.75 520.6644965277778L746.75 487.2360679774998" stroke="#323232" stroke-width="2.0" stroke-dasharray="none" fill="none" marker-start="url(#ProcessOnMarker1160)" marker-end="url(#ProcessOnMarker1162)"/></g><g id="ProcessOnG1164" transform="matrix(1.0,0.0,0.0,1.0,160.15625,402.25)" opacity="1.0"><path id="ProcessOnPath1165" d="M0.0 0.0L63.0 0.0L63.0 46.0L0.0 46.0Z" stroke="#323232" stroke-width="2.0" stroke-dasharray="none" opacity="1.0" fill="#99ccff"/><g id="ProcessOnG1166" transform="matrix(1.0,0.0,0.0,1.0,10.0,14.875)"><text id="ProcessOnText1167" fill="#000000" font-weight="normal" font-style="normal" text-decoration="blink" font-family="微软雅黑" text-anchor="middle" font-size="13" x="21.5" y="13.325">太阳能</text></g></g><g id="ProcessOnG1168" transform="matrix(1.0,0.0,0.0,1.0,1089.8613397347965,145.25)" opacity="1.0"><path id="ProcessOnPath1169" d="M0.0 4.0Q0.0 0.0 4.0 0.0L111.0 0.0Q115.0 0.0 115.0 4.0L115.0 66.0Q115.0 70.0 111.0 70.0L4.0 70.0Q0.0 70.0 0.0 66.0Z" stroke="#323232" stroke-width="2.0" stroke-dasharray="none" opacity="1.0" fill="#b3ff66"/><g id="ProcessOnG1170" transform="matrix(1.0,0.0,0.0,1.0,10.0,23.125)"><text id="ProcessOnText1171" fill="#323232" font-weight="bold" font-style="normal" text-decoration="blink" font-family="Arial,宋体" text-anchor="middle" font-size="19" x="47.5" y="19.475">太空工厂</text></g></g><g id="ProcessOnG1172" transform="matrix(1.0,0.0,0.0,1.0,1089.8613397347965,286.25)" opacity="1.0"><path id="ProcessOnPath1173" d="M0.0 4.0Q0.0 0.0 4.0 0.0L111.0 0.0Q115.0 0.0 115.0 4.0L115.0 66.0Q115.0 70.0 111.0 70.0L4.0 70.0Q0.0 70.0 0.0 66.0Z" stroke="#323232" stroke-width="2.0" stroke-dasharray="none" opacity="1.0" fill="#99ccff"/><g id="ProcessOnG1174" transform="matrix(1.0,0.0,0.0,1.0,10.0,23.125)"><text id="ProcessOnText1175" fill="#323232" font-weight="bold" font-style="normal" text-decoration="blink" font-family="Arial,宋体" text-anchor="middle" font-size="19" x="47.5" y="19.475">制造</text></g></g><g id="ProcessOnG1176" transform="matrix(1.0,0.0,0.0,1.0,1115.8613397347965,399.25)" opacity="1.0"><path id="ProcessOnPath1177" d="M0.0 0.0L63.0 0.0L63.0 46.0L0.0 46.0Z" stroke="#323232" stroke-width="2.0" stroke-dasharray="none" opacity="1.0" fill="#99ccff"/><g id="ProcessOnG1178" transform="matrix(1.0,0.0,0.0,1.0,10.0,6.75)"><text id="ProcessOnText1179" fill="#000000" font-weight="normal" font-style="normal" text-decoration="blink" font-family="微软雅黑" text-anchor="middle" font-size="13" x="21.5" y="13.325">3D 打</text><text id="ProcessOnText1180" fill="#000000" font-weight="normal" font-style="normal" text-decoration="blink" font-family="微软雅黑" text-anchor="middle" font-size="13" x="21.5" y="29.575">印</text></g></g><g id="ProcessOnG1181"><path id="ProcessOnPath1182" d="M1147.3613397347965 399.25L1147.3613397347965 377.75L1147.3613397347965 377.75L1147.3613397347965 356.25" stroke="#323232" stroke-width="2.0" stroke-dasharray="none" fill="none"/></g><g id="ProcessOnG1183"><path id="ProcessOnPath1184" d="M149.75 359.25L149.75 380.75L191.65625 380.75L191.65625 402.25" stroke="#323232" stroke-width="2.0" stroke-dasharray="none" fill="none"/></g><g id="ProcessOnG1185" transform="matrix(1.0,0.0,0.0,1.0,1286.8613397347965,145.25)" opacity="1.0"><path id="ProcessOnPath1186" d="M0.0 4.0Q0.0 0.0 4.0 0.0L111.0 0.0Q115.0 0.0 115.0 4.0L115.0 66.0Q115.0 70.0 111.0 70.0L4.0 70.0Q0.0 70.0 0.0 66.0Z" stroke="#323232" stroke-width="2.0" stroke-dasharray="none" opacity="1.0" fill="#b3ff66"/><g id="ProcessOnG1187" transform="matrix(1.0,0.0,0.0,1.0,10.0,23.125)"><text id="ProcessOnText1188" fill="#323232" font-weight="bold" font-style="normal" text-decoration="blink" font-family="Arial,宋体" text-anchor="middle" font-size="19" x="47.5" y="19.475">光照辅助</text></g></g><g id="ProcessOnG1189" transform="matrix(1.0,0.0,0.0,1.0,1286.8613397347965,286.25)" opacity="1.0"><path id="ProcessOnPath1190" d="M0.0 4.0Q0.0 0.0 4.0 0.0L111.0 0.0Q115.0 0.0 115.0 4.0L115.0 66.0Q115.0 70.0 111.0 70.0L4.0 70.0Q0.0 70.0 0.0 66.0Z" stroke="#323232" stroke-width="2.0" stroke-dasharray="none" opacity="1.0" fill="#99ccff"/><g id="ProcessOnG1191" transform="matrix(1.0,0.0,0.0,1.0,10.0,23.125)"><text id="ProcessOnText1192" fill="#323232" font-weight="bold" font-style="normal" text-decoration="blink" font-family="Arial,宋体" text-anchor="middle" font-size="19" x="47.5" y="19.475">服务</text></g></g><g id="ProcessOnG1193" transform="matrix(1.0,0.0,0.0,1.0,1269.8613397347965,399.25)" opacity="1.0"><path id="ProcessOnPath1194" d="M0.0 0.0L63.0 0.0L63.0 46.0L0.0 46.0Z" stroke="#323232" stroke-width="2.0" stroke-dasharray="none" opacity="1.0" fill="#99ccff"/><g id="ProcessOnG1195" transform="matrix(1.0,0.0,0.0,1.0,10.0,14.875)"><text id="ProcessOnText1196" fill="#000000" font-weight="normal" font-style="normal" text-decoration="blink" font-family="微软雅黑" text-anchor="middle" font-size="13" x="21.5" y="13.325">旅游</text></g></g><g id="ProcessOnG1197"><path id="ProcessOnPath1198" d="M1301.3613397347965 399.25L1301.3613397347965 377.75L1344.3613397347965 377.75L1344.3613397347965 356.25" stroke="#323232" stroke-width="2.0" stroke-dasharray="none" fill="none"/></g><g id="ProcessOnG1199" transform="matrix(1.0,0.0,0.0,1.0,1352.8613397347965,399.25)" opacity="1.0"><path id="ProcessOnPath1200" d="M0.0 0.0L63.0 0.0L63.0 46.0L0.0 46.0Z" stroke="#323232" stroke-width="2.0" stroke-dasharray="none" opacity="1.0" fill="#99ccff"/><g id="ProcessOnG1201" transform="matrix(1.0,0.0,0.0,1.0,10.0,14.875)"><text id="ProcessOnText1202" fill="#000000" font-weight="normal" font-style="normal" text-decoration="blink" font-family="微软雅黑" text-anchor="middle" font-size="13" x="21.5" y="13.325">IT</text></g></g><g id="ProcessOnG1203"><path id="ProcessOnPath1204" d="M1344.3613397347965 356.25L1344.3613397347965 377.75L1384.3613397347965 377.75L1384.3613397347965 399.25" stroke="#323232" stroke-width="2.0" stroke-dasharray="none" fill="none"/></g><g id="ProcessOnG1205" transform="matrix(1.0,0.0,0.0,1.0,755.25,402.25)" opacity="1.0"><path id="ProcessOnPath1206" d="M0.0 0.0L63.0 0.0L63.0 46.0L0.0 46.0Z" stroke="#323232" stroke-width="2.0" stroke-dasharray="none" opacity="1.0" fill="#99ccff"/><g id="ProcessOnG1207" transform="matrix(1.0,0.0,0.0,1.0,10.0,14.875)"><text id="ProcessOnText1208" fill="#000000" font-weight="normal" font-style="normal" text-decoration="blink" font-family="微软雅黑" text-anchor="middle" font-size="13" x="21.5" y="13.325">昆虫</text></g></g><g id="ProcessOnG1209"><path id="ProcessOnPath1210" d="M746.75 359.25L746.75 380.75L786.75 380.75L786.75 402.25" stroke="#323232" stroke-width="2.0" stroke-dasharray="none" fill="none"/></g></g></g></svg>