<svg xmlns="http://www.w3.org/2000/svg" xmlns:xlink="http://www.w3.org/1999/xlink" id="processonSvg1000" viewBox="137.14285714285734 330.33333333333337 2287.523809523806 515.3809523809524" width="2287.523809523806" height="515.3809523809524"><defs id="ProcessOnDefs1001"><marker id="ProcessOnMarker1070" markerUnits="userSpaceOnUse" orient="auto" markerWidth="16.23606797749979" markerHeight="10.550836550532098" viewBox="-1.0 -1.3763819204711736 16.23606797749979 10.550836550532098" refX="-1.0" refY="3.8990363547948754"><path id="ProcessOnPath1071" d="M12.0 3.8990363547948754L0.0 7.798072709589751V0.0Z" stroke="#323232" stroke-width="2.0" fill="#323232" transform="matrix(1.0,0.0,0.0,1.0,0.0,0.0)"/></marker><marker id="ProcessOnMarker1074" markerUnits="userSpaceOnUse" orient="auto" markerWidth="16.23606797749979" markerHeight="10.550836550532098" viewBox="-1.0 -1.3763819204711736 16.23606797749979 10.550836550532098" refX="-1.0" refY="3.8990363547948754"><path id="ProcessOnPath1075" d="M12.0 3.8990363547948754L0.0 7.798072709589751V0.0Z" stroke="#323232" stroke-width="2.0" fill="#323232" transform="matrix(1.0,0.0,0.0,1.0,0.0,0.0)"/></marker><marker id="ProcessOnMarker1078" markerUnits="userSpaceOnUse" orient="auto" markerWidth="16.23606797749979" markerHeight="10.550836550532098" viewBox="-1.0 -1.3763819204711736 16.23606797749979 10.550836550532098" refX="-1.0" refY="3.8990363547948754"><path id="ProcessOnPath1079" d="M12.0 3.8990363547948754L0.0 7.798072709589751V0.0Z" stroke="#323232" stroke-width="2.0" fill="#323232" transform="matrix(1.0,0.0,0.0,1.0,0.0,0.0)"/></marker><marker id="ProcessOnMarker1082" markerUnits="userSpaceOnUse" orient="auto" markerWidth="16.23606797749979" markerHeight="10.550836550532098" viewBox="-1.0 -1.3763819204711736 16.23606797749979 10.550836550532098" refX="-1.0" refY="3.8990363547948754"><path id="ProcessOnPath1083" d="M12.0 3.8990363547948754L0.0 7.798072709589751V0.0Z" stroke="#323232" stroke-width="2.0" fill="#323232" transform="matrix(1.0,0.0,0.0,1.0,0.0,0.0)"/></marker><marker id="ProcessOnMarker1086" markerUnits="userSpaceOnUse" orient="auto" markerWidth="16.23606797749979" markerHeight="10.550836550532098" viewBox="-1.0 -1.3763819204711736 16.23606797749979 10.550836550532098" refX="-1.0" refY="3.8990363547948754"><path id="ProcessOnPath1087" d="M12.0 3.8990363547948754L0.0 7.798072709589751V0.0Z" stroke="#323232" stroke-width="2.0" fill="#323232" transform="matrix(1.0,0.0,0.0,1.0,0.0,0.0)"/></marker><marker id="ProcessOnMarker1090" markerUnits="userSpaceOnUse" orient="auto" markerWidth="16.23606797749979" markerHeight="10.550836550532098" viewBox="-1.0 -1.3763819204711736 16.23606797749979 10.550836550532098" refX="-1.0" refY="3.8990363547948754"><path id="ProcessOnPath1091" d="M12.0 3.8990363547948754L0.0 7.798072709589751V0.0Z" stroke="#323232" stroke-width="2.0" fill="#323232" transform="matrix(1.0,0.0,0.0,1.0,0.0,0.0)"/></marker><marker id="ProcessOnMarker1094" markerUnits="userSpaceOnUse" orient="auto" markerWidth="16.23606797749979" markerHeight="10.550836550532098" viewBox="-1.0 -1.3763819204711736 16.23606797749979 10.550836550532098" refX="-1.0" refY="3.8990363547948754"><path id="ProcessOnPath1095" d="M12.0 3.8990363547948754L0.0 7.798072709589751V0.0Z" stroke="#323232" stroke-width="2.0" fill="#323232" transform="matrix(1.0,0.0,0.0,1.0,0.0,0.0)"/></marker><marker id="ProcessOnMarker1098" markerUnits="userSpaceOnUse" orient="auto" markerWidth="16.23606797749979" markerHeight="10.550836550532098" viewBox="-1.0 -1.3763819204711736 16.23606797749979 10.550836550532098" refX="-1.0" refY="3.8990363547948754"><path id="ProcessOnPath1099" d="M12.0 3.8990363547948754L0.0 7.798072709589751V0.0Z" stroke="#323232" stroke-width="2.0" fill="#323232" transform="matrix(1.0,0.0,0.0,1.0,0.0,0.0)"/></marker><marker id="ProcessOnMarker1102" markerUnits="userSpaceOnUse" orient="auto" markerWidth="16.23606797749979" markerHeight="10.550836550532098" viewBox="-1.0 -1.3763819204711736 16.23606797749979 10.550836550532098" refX="-1.0" refY="3.8990363547948754"><path id="ProcessOnPath1103" d="M12.0 3.8990363547948754L0.0 7.798072709589751V0.0Z" stroke="#323232" stroke-width="2.0" fill="#323232" transform="matrix(1.0,0.0,0.0,1.0,0.0,0.0)"/></marker><marker id="ProcessOnMarker1106" markerUnits="userSpaceOnUse" orient="auto" markerWidth="16.23606797749979" markerHeight="10.550836550532098" viewBox="-1.0 -1.3763819204711736 16.23606797749979 10.550836550532098" refX="-1.0" refY="3.8990363547948754"><path id="ProcessOnPath1107" d="M12.0 3.8990363547948754L0.0 7.798072709589751V0.0Z" stroke="#323232" stroke-width="2.0" fill="#323232" transform="matrix(1.0,0.0,0.0,1.0,0.0,0.0)"/></marker><marker id="ProcessOnMarker1116" markerUnits="userSpaceOnUse" orient="auto" markerWidth="16.23606797749979" markerHeight="10.550836550532098" viewBox="-1.0 -1.3763819204711736 16.23606797749979 10.550836550532098" refX="-1.0" refY="3.8990363547948754"><path id="ProcessOnPath1117" d="M12.0 3.8990363547948754L0.0 7.798072709589751V0.0Z" stroke="#323232" stroke-width="2.0" fill="#323232" transform="matrix(1.0,0.0,0.0,1.0,0.0,0.0)"/></marker><marker id="ProcessOnMarker1120" markerUnits="userSpaceOnUse" orient="auto" markerWidth="16.23606797749979" markerHeight="10.550836550532098" viewBox="-1.0 -1.3763819204711736 16.23606797749979 10.550836550532098" refX="-1.0" refY="3.8990363547948754"><path id="ProcessOnPath1121" d="M12.0 3.8990363547948754L0.0 7.798072709589751V0.0Z" stroke="#323232" stroke-width="2.0" fill="#323232" transform="matrix(1.0,0.0,0.0,1.0,0.0,0.0)"/></marker><marker id="ProcessOnMarker1128" markerUnits="userSpaceOnUse" orient="auto" markerWidth="16.23606797749979" markerHeight="10.550836550532098" viewBox="-1.0 -1.3763819204711736 16.23606797749979 10.550836550532098" refX="-1.0" refY="3.8990363547948754"><path id="ProcessOnPath1129" d="M12.0 3.8990363547948754L0.0 7.798072709589751V0.0Z" stroke="#323232" stroke-width="2.0" fill="#323232" transform="matrix(1.0,0.0,0.0,1.0,0.0,0.0)"/></marker></defs><g id="ProcessOnG1002"><path id="ProcessOnPath1003" d="M137.14285714285734 330.33333333333337H2424.6666666666633V845.7142857142858H137.14285714285734V330.33333333333337Z" fill="#ffffff"/><g id="ProcessOnG1004"><g id="ProcessOnG1005" transform="matrix(1.0,0.0,0.0,1.0,157.14285714285734,350.33333333333337)" opacity="1.0"><path id="ProcessOnPath1006" d="M0.0 4.0Q0.0 0.0 4.0 0.0L2243.523809523806 0.0Q2247.523809523806 0.0 2247.523809523806 4.0L2247.523809523806 471.3809523809524Q2247.523809523806 475.3809523809524 2243.523809523806 475.3809523809524L4.0 475.3809523809524Q0.0 475.3809523809524 0.0 471.3809523809524Z" stroke="#323232" stroke-width="2.0" stroke-dasharray="none" opacity="1.0" fill="#ccffcc"/></g><g id="ProcessOnG1007" transform="matrix(1.0,0.0,0.0,1.0,665.4493824140632,518.6666666666666)" opacity="1.0"><path id="ProcessOnPath1008" d="M0.0 0.0L150.0 0.0L150.0 81.66666666666669L0.0 81.66666666666669Z" stroke="#323232" stroke-width="2.0" stroke-dasharray="none" opacity="1.0" fill="#66ffb3"/><g id="ProcessOnG1009" transform="matrix(1.0,0.0,0.0,1.0,10.0,25.833333333333343)"><text id="ProcessOnText1010" fill="#000000" font-weight="normal" font-style="normal" text-decoration="blink" font-family="微软雅黑" text-anchor="middle" font-size="24" x="65.0" y="24.6">项目</text></g></g><g id="ProcessOnG1011" transform="matrix(1.0,0.0,0.0,1.0,443.6741316305991,699.0)" opacity="1.0"><path id="ProcessOnPath1012" d="M0.0 0.0L150.0 0.0L150.0 81.66666666666669L0.0 81.66666666666669Z" stroke="#323232" stroke-width="2.0" stroke-dasharray="none" opacity="1.0" fill="#66ffb3"/><g id="ProcessOnG1013" transform="matrix(1.0,0.0,0.0,1.0,10.0,18.333333333333343)"><text id="ProcessOnText1014" fill="#000000" font-weight="normal" font-style="normal" text-decoration="blink" font-family="微软雅黑" text-anchor="middle" font-size="18" x="65.0" y="18.45">主线设定：</text><text id="ProcessOnText1015" fill="#000000" font-weight="normal" font-style="normal" text-decoration="blink" font-family="微软雅黑" text-anchor="middle" font-size="18" x="65.0" y="40.95">星际移民之书</text></g></g><g id="ProcessOnG1016" transform="matrix(1.0,0.0,0.0,1.0,886.9222653896152,699.0)" opacity="1.0"><path id="ProcessOnPath1017" d="M0.0 0.0L150.0 0.0L150.0 81.66666666666669L0.0 81.66666666666669Z" stroke="#323232" stroke-width="2.0" stroke-dasharray="none" opacity="1.0" fill="#66ffb3"/><g id="ProcessOnG1018" transform="matrix(1.0,0.0,0.0,1.0,10.0,7.083333333333343)"><text id="ProcessOnText1019" fill="#000000" font-weight="normal" font-style="normal" text-decoration="blink" font-family="微软雅黑" text-anchor="middle" font-size="18" x="65.0" y="18.45">相关短文：</text><text id="ProcessOnText1020" fill="#000000" font-weight="normal" font-style="normal" text-decoration="blink" font-family="微软雅黑" text-anchor="middle" font-size="18" x="65.0" y="40.95">《星海航纪》杂</text><text id="ProcessOnText1021" fill="#000000" font-weight="normal" font-style="normal" text-decoration="blink" font-family="微软雅黑" text-anchor="middle" font-size="18" x="65.0" y="63.45">志</text></g></g><g id="ProcessOnG1022" transform="matrix(1.0,0.0,0.0,1.0,665.2981985101071,699.0)" opacity="1.0"><path id="ProcessOnPath1023" d="M0.0 0.0L150.0 0.0L150.0 81.66666666666669L0.0 81.66666666666669Z" stroke="#323232" stroke-width="2.0" stroke-dasharray="none" opacity="1.0" fill="#66ffb3"/><g id="ProcessOnG1024" transform="matrix(1.0,0.0,0.0,1.0,10.0,18.333333333333343)"><text id="ProcessOnText1025" fill="#000000" font-weight="normal" font-style="normal" text-decoration="blink" font-family="微软雅黑" text-anchor="middle" font-size="18" x="65.0" y="18.45">科普文档：</text><text id="ProcessOnText1026" fill="#000000" font-weight="normal" font-style="normal" text-decoration="blink" font-family="微软雅黑" text-anchor="middle" font-size="18" x="65.0" y="40.95">系外行星档案</text></g></g><g id="ProcessOnG1027" transform="matrix(1.0,0.0,0.0,1.0,1108.5463322691232,699.0)" opacity="1.0"><path id="ProcessOnPath1028" d="M0.0 0.0L150.0 0.0L150.0 81.66666666666669L0.0 81.66666666666669Z" stroke="#323232" stroke-width="2.0" stroke-dasharray="none" opacity="1.0" fill="#66ffb3"/><g id="ProcessOnG1029" transform="matrix(1.0,0.0,0.0,1.0,10.0,18.333333333333343)"><text id="ProcessOnText1030" fill="#000000" font-weight="normal" font-style="normal" text-decoration="blink" font-family="微软雅黑" text-anchor="middle" font-size="18" x="65.0" y="18.45">线上讨论：</text><text id="ProcessOnText1031" fill="#000000" font-weight="normal" font-style="normal" text-decoration="blink" font-family="微软雅黑" text-anchor="middle" font-size="18" x="65.0" y="40.95">星际圆桌</text></g></g><g id="ProcessOnG1032" transform="matrix(1.0,0.0,0.0,1.0,1774.16851562518,518.6666666666667)" opacity="1.0"><path id="ProcessOnPath1033" d="M0.0 0.0L150.0 0.0L150.0 81.66666666666669L0.0 81.66666666666669Z" stroke="#323232" stroke-width="2.0" stroke-dasharray="none" opacity="1.0" fill="#66ffb3"/><g id="ProcessOnG1034" transform="matrix(1.0,0.0,0.0,1.0,10.0,25.833333333333343)"><text id="ProcessOnText1035" fill="#000000" font-weight="normal" font-style="normal" text-decoration="blink" font-family="微软雅黑" text-anchor="middle" font-size="24" x="65.0" y="24.6">宣传</text></g></g><g id="ProcessOnG1036" transform="matrix(1.0,0.0,0.0,1.0,1330.1703991486313,699.0)" opacity="1.0"><path id="ProcessOnPath1037" d="M0.0 0.0L150.0 0.0L150.0 81.66666666666669L0.0 81.66666666666669Z" stroke="#323232" stroke-width="2.0" stroke-dasharray="none" opacity="1.0" fill="#66ffb3"/><g id="ProcessOnG1038" transform="matrix(1.0,0.0,0.0,1.0,10.0,7.083333333333343)"><text id="ProcessOnText1039" fill="#000000" font-weight="normal" font-style="normal" text-decoration="blink" font-family="微软雅黑" text-anchor="middle" font-size="18" x="65.0" y="18.45">网站建设</text><text id="ProcessOnText1040" fill="#000000" font-weight="normal" font-style="normal" text-decoration="blink" font-family="微软雅黑" text-anchor="middle" font-size="18" x="65.0" y="40.95">（InterImm.or</text><text id="ProcessOnText1041" fill="#000000" font-weight="normal" font-style="normal" text-decoration="blink" font-family="微软雅黑" text-anchor="middle" font-size="18" x="65.0" y="63.45">g）</text></g></g><g id="ProcessOnG1042" transform="matrix(1.0,0.0,0.0,1.0,1551.7944660281394,699.0)" opacity="1.0"><path id="ProcessOnPath1043" d="M0.0 0.0L150.0 0.0L150.0 81.66666666666669L0.0 81.66666666666669Z" stroke="#323232" stroke-width="2.0" stroke-dasharray="none" opacity="1.0" fill="#66ffb3"/><g id="ProcessOnG1044" transform="matrix(1.0,0.0,0.0,1.0,10.0,7.083333333333343)"><text id="ProcessOnText1045" fill="#000000" font-weight="normal" font-style="normal" text-decoration="blink" font-family="微软雅黑" text-anchor="middle" font-size="18" x="65.0" y="18.45">微博运营</text><text id="ProcessOnText1046" fill="#000000" font-weight="normal" font-style="normal" text-decoration="blink" font-family="微软雅黑" text-anchor="middle" font-size="18" x="65.0" y="40.95">（星际移民中心</text><text id="ProcessOnText1047" fill="#000000" font-weight="normal" font-style="normal" text-decoration="blink" font-family="微软雅黑" text-anchor="middle" font-size="18" x="65.0" y="63.45">@weibo）</text></g></g><g id="ProcessOnG1048" transform="matrix(1.0,0.0,0.0,1.0,1773.4185329076474,699.0)" opacity="1.0"><path id="ProcessOnPath1049" d="M0.0 0.0L150.0 0.0L150.0 81.66666666666669L0.0 81.66666666666669Z" stroke="#323232" stroke-width="2.0" stroke-dasharray="none" opacity="1.0" fill="#66ffb3"/><g id="ProcessOnG1050" transform="matrix(1.0,0.0,0.0,1.0,10.0,7.083333333333343)"><text id="ProcessOnText1051" fill="#000000" font-weight="normal" font-style="normal" text-decoration="blink" font-family="微软雅黑" text-anchor="middle" font-size="18" x="65.0" y="18.45">视频搬运</text><text id="ProcessOnText1052" fill="#000000" font-weight="normal" font-style="normal" text-decoration="blink" font-family="微软雅黑" text-anchor="middle" font-size="18" x="65.0" y="40.95">（星际移民中心</text><text id="ProcessOnText1053" fill="#000000" font-weight="normal" font-style="normal" text-decoration="blink" font-family="微软雅黑" text-anchor="middle" font-size="18" x="65.0" y="63.45">@bilibili）</text></g></g><g id="ProcessOnG1054" transform="matrix(1.0,0.0,0.0,1.0,1994.4284448323456,699.0)" opacity="1.0"><path id="ProcessOnPath1055" d="M0.0 0.0L150.0 0.0L150.0 81.66666666666669L0.0 81.66666666666669Z" stroke="#323232" stroke-width="2.0" stroke-dasharray="none" opacity="1.0" fill="#66ffb3"/><g id="ProcessOnG1056" transform="matrix(1.0,0.0,0.0,1.0,10.0,7.083333333333343)"><text id="ProcessOnText1057" fill="#000000" font-weight="normal" font-style="normal" text-decoration="blink" font-family="微软雅黑" text-anchor="middle" font-size="18" x="65.0" y="18.45">果壳小组</text><text id="ProcessOnText1058" fill="#000000" font-weight="normal" font-style="normal" text-decoration="blink" font-family="微软雅黑" text-anchor="middle" font-size="18" x="65.0" y="40.95">（星际移民局@</text><text id="ProcessOnText1059" fill="#000000" font-weight="normal" font-style="normal" text-decoration="blink" font-family="微软雅黑" text-anchor="middle" font-size="18" x="65.0" y="63.45">guokr）</text></g></g><g id="ProcessOnG1060" transform="matrix(1.0,0.0,0.0,1.0,2216.6666666666633,699.0)" opacity="1.0"><path id="ProcessOnPath1061" d="M0.0 0.0L150.0 0.0L150.0 81.66666666666669L0.0 81.66666666666669Z" stroke="#323232" stroke-width="2.0" stroke-dasharray="none" opacity="1.0" fill="#66ffb3"/><g id="ProcessOnG1062" transform="matrix(1.0,0.0,0.0,1.0,10.0,29.583333333333343)"><text id="ProcessOnText1063" fill="#000000" font-weight="normal" font-style="normal" text-decoration="blink" font-family="微软雅黑" text-anchor="middle" font-size="18" x="65.0" y="18.45">周边制作</text></g></g><g id="ProcessOnG1064" transform="matrix(1.0,0.0,0.0,1.0,1269.999999999998,366.6666666666665)" opacity="1.0"><path id="ProcessOnPath1065" d="M0.0 0.0L150.0 0.0L150.0 81.66666666666669L0.0 81.66666666666669Z" stroke="#323232" stroke-width="2.0" stroke-dasharray="none" opacity="1.0" fill="#66ffb3"/><g id="ProcessOnG1066" transform="matrix(1.0,0.0,0.0,1.0,10.0,24.583333333333343)"><text id="ProcessOnText1067" fill="#000000" font-weight="bold" font-style="normal" text-decoration="blink" font-family="微软雅黑" text-anchor="middle" font-size="26" x="65.0" y="26.65">星际移民局</text></g></g><g id="ProcessOnG1068"><path id="ProcessOnPath1069" d="M740.4493824140632 600.3333333333333L740.4493824140632 649.6666666666666L518.6741316305992 649.6666666666666L518.6741316305992 683.7639320225002" stroke="#323232" stroke-width="2.0" stroke-dasharray="none" fill="none" marker-end="url(#ProcessOnMarker1070)"/></g><g id="ProcessOnG1072"><path id="ProcessOnPath1073" d="M740.4493824140632 600.3333333333333L740.4493824140632 649.6666666666666L961.9222653896152 649.6666666666666L961.9222653896152 683.7639320225002" stroke="#323232" stroke-width="2.0" stroke-dasharray="none" fill="none" marker-end="url(#ProcessOnMarker1074)"/></g><g id="ProcessOnG1076"><path id="ProcessOnPath1077" d="M740.4493824140632 600.3333333333334L740.4493824140632 649.6666666666667L1182.5070526536913 649.6666666666667L1182.5070526536913 683.7639320225002" stroke="#323232" stroke-width="2.0" stroke-dasharray="none" fill="none" marker-end="url(#ProcessOnMarker1078)"/></g><g id="ProcessOnG1080"><path id="ProcessOnPath1081" d="M1849.16851562518 600.3333333333334L1849.16851562518 649.6666666666667L1405.1703991486313 649.6666666666667L1405.1703991486313 683.7639320225002" stroke="#323232" stroke-width="2.0" stroke-dasharray="none" fill="none" marker-end="url(#ProcessOnMarker1082)"/></g><g id="ProcessOnG1084"><path id="ProcessOnPath1085" d="M1849.16851562518 600.3333333333334L1849.16851562518 649.6666666666667L1626.7944660281394 649.6666666666667L1626.7944660281394 683.7639320225002" stroke="#323232" stroke-width="2.0" stroke-dasharray="none" fill="none" marker-end="url(#ProcessOnMarker1086)"/></g><g id="ProcessOnG1088"><path id="ProcessOnPath1089" d="M1849.16851562518 600.3333333333334L1849.16851562518 649.6666666666667L1848.4185329076474 649.6666666666667L1848.4185329076474 683.7639320225002" stroke="#323232" stroke-width="2.0" stroke-dasharray="none" fill="none" marker-end="url(#ProcessOnMarker1090)"/></g><g id="ProcessOnG1092"><path id="ProcessOnPath1093" d="M1849.16851562518 600.3333333333334L1849.16851562518 649.6666666666667L2069.4284448323456 649.6666666666667L2069.4284448323456 683.7639320225002" stroke="#323232" stroke-width="2.0" stroke-dasharray="none" fill="none" marker-end="url(#ProcessOnMarker1094)"/></g><g id="ProcessOnG1096"><path id="ProcessOnPath1097" d="M1849.16851562518 600.3333333333334L1849.16851562518 649.6666666666667L2291.6666666666633 649.6666666666667L2291.6666666666633 683.7639320225002" stroke="#323232" stroke-width="2.0" stroke-dasharray="none" fill="none" marker-end="url(#ProcessOnMarker1098)"/></g><g id="ProcessOnG1100"><path id="ProcessOnPath1101" d="M1344.999999999998 448.3333333333332L1344.999999999998 483.4999999999999L740.4493824140632 483.4999999999999L740.4493824140632 503.43059868916686" stroke="#323232" stroke-width="2.0" stroke-dasharray="none" fill="none" marker-end="url(#ProcessOnMarker1102)"/></g><g id="ProcessOnG1104"><path id="ProcessOnPath1105" d="M1344.999999999998 448.3333333333332L1344.999999999998 483.5L1849.16851562518 483.5L1849.16851562518 503.43059868916697" stroke="#323232" stroke-width="2.0" stroke-dasharray="none" fill="none" marker-end="url(#ProcessOnMarker1106)"/></g><g id="ProcessOnG1108"><path id="ProcessOnPath1109" d="M1330.1703991486313 739.8333333333334L1291.614961479078 739.8333333333334L1291.614961479078 559.6066219032184L1111.7261904761906 559.6066219032184" stroke="#323232" stroke-width="2.0" stroke-dasharray="10.0 4.0" fill="none"/></g><g id="ProcessOnG1110" transform="matrix(1.0,0.0,0.0,1.0,222.05006475109104,699.0)" opacity="1.0"><path id="ProcessOnPath1111" d="M0.0 0.0L150.0 0.0L150.0 81.66666666666669L0.0 81.66666666666669Z" stroke="#323232" stroke-width="2.0" stroke-dasharray="none" opacity="1.0" fill="#66ffb3"/><g id="ProcessOnG1112" transform="matrix(1.0,0.0,0.0,1.0,10.0,29.583333333333343)"><text id="ProcessOnText1113" fill="#000000" font-weight="normal" font-style="normal" text-decoration="blink" font-family="微软雅黑" text-anchor="middle" font-size="18" x="65.0" y="18.45">其他支撑项目</text></g></g><g id="ProcessOnG1114"><path id="ProcessOnPath1115" d="M740.4493824140632 600.3333333333334L740.4493824140632 649.6666666666667L297.05006475109104 649.6666666666667L297.05006475109104 683.7639320225002" stroke="#323232" stroke-width="2.0" stroke-dasharray="none" fill="none" marker-end="url(#ProcessOnMarker1116)"/></g><g id="ProcessOnG1118"><path id="ProcessOnPath1119" d="M740.4493824140632 600.3333333333333L740.4493824140632 649.6666666666666L740.2981985101071 649.6666666666666L740.2981985101071 683.7639320225002" stroke="#323232" stroke-width="2.0" stroke-dasharray="none" fill="none" marker-end="url(#ProcessOnMarker1120)"/></g><g id="ProcessOnG1122" transform="matrix(1.0,0.0,0.0,1.0,1080.0,537.5714285714287)" opacity="1.0"><path id="ProcessOnPath1123" d="M0.0 0.0L55.71428571428578 0.0L55.71428571428578 43.85714285714289L0.0 43.85714285714289Z" stroke="#ccffcc" stroke-width="2.0" stroke-dasharray="none" opacity="1.0" fill="#ccffcc"/><g id="ProcessOnG1124" transform="matrix(1.0,0.0,0.0,1.0,10.0,11.303571428571445)"><text id="ProcessOnText1125" fill="#000000" font-weight="normal" font-style="normal" text-decoration="blink" font-family="微软雅黑" text-anchor="middle" font-size="17" x="17.85714285714289" y="17.425">支持</text></g></g><g id="ProcessOnG1126"><path id="ProcessOnPath1127" d="M1080.0 559.5000000000001L947.7246912070316 559.5000000000001L947.7246912070316 559.5L830.685450391563 559.5" stroke="#323232" stroke-width="2.0" stroke-dasharray="10.0 4.0" fill="none" marker-end="url(#ProcessOnMarker1128)"/></g></g></g></svg>