<svg xmlns="http://www.w3.org/2000/svg" xmlns:xlink="http://www.w3.org/1999/xlink" id="processonSvg1000" viewBox="44.46665954589844 56.0 2137.5333404541016 1762.2999877929688" width="2137.5333404541016" height="1762.2999877929688"><defs id="ProcessOnDefs1001"><marker id="ProcessOnMarker1047" markerUnits="userSpaceOnUse" orient="auto" markerWidth="16.23606797749979" markerHeight="10.550836550532098" viewBox="-1.0 -1.3763819204711736 16.23606797749979 10.550836550532098" refX="-1.0" refY="3.8990363547948754"><path id="ProcessOnPath1048" d="M12.0 3.8990363547948754L0.0 7.798072709589751V0.0Z" stroke="#323232" stroke-width="2.0" fill="#323232" transform="matrix(1.0,0.0,0.0,1.0,0.0,0.0)"/></marker><marker id="ProcessOnMarker1051" markerUnits="userSpaceOnUse" orient="auto" markerWidth="16.23606797749979" markerHeight="10.550836550532098" viewBox="-1.0 -1.3763819204711736 16.23606797749979 10.550836550532098" refX="-1.0" refY="3.8990363547948754"><path id="ProcessOnPath1052" d="M12.0 3.8990363547948754L0.0 7.798072709589751V0.0Z" stroke="#323232" stroke-width="2.0" fill="#323232" transform="matrix(1.0,0.0,0.0,1.0,0.0,0.0)"/></marker><marker id="ProcessOnMarker1060" markerUnits="userSpaceOnUse" orient="auto" markerWidth="16.23606797749979" markerHeight="10.550836550532098" viewBox="-1.0 -1.3763819204711736 16.23606797749979 10.550836550532098" refX="-1.0" refY="3.8990363547948754"><path id="ProcessOnPath1061" d="M12.0 3.8990363547948754L0.0 7.798072709589751V0.0Z" stroke="#323232" stroke-width="2.0" fill="#323232" transform="matrix(1.0,0.0,0.0,1.0,0.0,0.0)"/></marker><marker id="ProcessOnMarker1068" markerUnits="userSpaceOnUse" orient="auto" markerWidth="16.23606797749979" markerHeight="10.550836550532098" viewBox="-1.0 -1.3763819204711736 16.23606797749979 10.550836550532098" refX="-1.0" refY="3.8990363547948754"><path id="ProcessOnPath1069" d="M12.0 3.8990363547948754L0.0 7.798072709589751V0.0Z" stroke="#323232" stroke-width="2.0" fill="#323232" transform="matrix(1.0,0.0,0.0,1.0,0.0,0.0)"/></marker><pattern id="ProcessOnPattern1135" patternUnits="userSpaceOnUse" width="574.0" height="363.9666748046875"><image id="ProcessOnImage1136" xlink:href="http://3.im.guokr.com/gkimage/hg/8x/j6/hg8xj6.jpg" width="574.0" height="382.6666666666667" transform="matrix(1.0,0.0,0.0,1.0,0.0,-9.349995930989593)"/></pattern><pattern id="ProcessOnPattern1139" patternUnits="userSpaceOnUse" width="332.0" height="511.0"><image id="ProcessOnImage1140" xlink:href="https://upload.wikimedia.org/wikipedia/commons/a/a6/Stanford_torus_configuration.gif" width="332.0" height="511.0" transform="matrix(1.0,0.0,0.0,1.0,0.0,0.0)"/></pattern><pattern id="ProcessOnPattern1143" patternUnits="userSpaceOnUse" width="604.0" height="301.566650390625"><image id="ProcessOnImage1144" xlink:href="http://img3.douban.com/view/photo/raw/public/p978307942.jpg" width="677.6778660463483" height="301.566650390625" transform="matrix(1.0,0.0,0.0,1.0,-36.83893302317415,0.0)"/></pattern><pattern id="ProcessOnPattern1179" patternUnits="userSpaceOnUse" width="767.4666595458984" height="343.29998779296875"><image id="ProcessOnImage1180" xlink:href="http://test.processon.com/file/id/54a78c4de4b0afd11bb5eb5a/diagram_user_image" width="912.6147131360332" height="343.29998779296875" transform="matrix(1.0,0.0,0.0,1.0,-72.57402679506737,0.0)"/></pattern></defs><g id="ProcessOnG1002"><path id="ProcessOnPath1003" d="M44.46665954589844 56.0H2182.0V1818.2999877929688H44.46665954589844V56.0Z" fill="#ffffff"/><g id="ProcessOnG1004"><g id="ProcessOnG1005" transform="matrix(1.0,0.0,0.0,1.0,64.46665954589844,1060.0749816894531)" opacity="1.0"><path id="ProcessOnPath1006" d="M0.0 180.42501831054688C0.0 -60.14167277018229 370.0666809082031 -60.14167277018229 370.0666809082031 180.42501831054688C370.0666809082031 420.99170939127606 0.0 420.99170939127606 0.0 180.42501831054688Z" stroke="#323232" stroke-width="2.0" stroke-dasharray="none" opacity="1.0" fill="#ffffff"/></g><g id="ProcessOnG1007" transform="matrix(1.0,0.0,0.0,1.0,1551.0,410.0)" opacity="1.0"><path id="ProcessOnPath1008" d="M0.0 148.0C0.0 -49.333333333333336 306.0 -49.333333333333336 306.0 148.0C306.0 345.3333333333333 0.0 345.3333333333333 0.0 148.0Z" stroke="#323232" stroke-width="2.0" stroke-dasharray="none" opacity="1.0" fill="#ffffff"/></g><g id="ProcessOnG1009" transform="matrix(1.0,0.0,0.0,1.0,1579.5,432.5)" opacity="1.0"><path id="ProcessOnPath1010" d="M0.0 125.5C0.0 -41.833333333333336 249.0 -41.833333333333336 249.0 125.5C249.0 292.8333333333333 0.0 292.8333333333333 0.0 125.5Z" stroke="#323232" stroke-width="2.0" stroke-dasharray="none" opacity="1.0" fill="#ffffff"/></g><g id="ProcessOnG1011" transform="matrix(1.0,0.0,0.0,1.0,1579.5,432.5)" opacity="1.0"><path id="ProcessOnPath1012" d="M0.0 125.5C0.0 -41.833333333333336 249.0 -41.833333333333336 249.0 125.5C249.0 292.8333333333333 0.0 292.8333333333333 0.0 125.5Z" stroke="#323232" stroke-width="2.0" stroke-dasharray="none" opacity="1.0" fill="#ffffff"/><path id="ProcessOnPath1013" d="M41.5 41.83333333333333L207.5 209.16666666666669M207.5 41.83333333333333L41.5 209.16666666666669" stroke="#323232" stroke-width="2.0" stroke-dasharray="none" opacity="1.0" fill="#ffffff"/><path id="ProcessOnPath1014" d="M0.0 125.5C0.0 -41.833333333333336 249.0 -41.833333333333336 249.0 125.5C249.0 292.8333333333333 0.0 292.8333333333333 0.0 125.5Z" stroke="#323232" stroke-width="0.0" stroke-dasharray="none" opacity="1.0" fill="none"/></g><g id="ProcessOnG1015" transform="matrix(1.0,0.0,0.0,1.0,1698.75,429.9499969482422)" opacity="1.0"><path id="ProcessOnPath1016" d="M0.0 0.0L16.5 0.0L16.5 246.0L0.0 246.0Z" stroke="#323232" stroke-width="2.0" stroke-dasharray="none" opacity="1.0" fill="#ffffff"/></g><g id="ProcessOnG1017" transform="matrix(1.0,0.0,0.0,1.0,168.0,139.0)" opacity="1.0"><path id="ProcessOnPath1018" d="M0.0 0.0L160.0 0.0L160.0 40.0L0.0 40.0Z" stroke="#323232" stroke-width="0.0" stroke-dasharray="none" opacity="1.0" fill="none"/><g id="ProcessOnG1019" transform="matrix(1.0,0.0,0.0,1.0,0.0,-4.375)"><text id="ProcessOnText1020" fill="#000000" font-weight="normal" font-style="normal" text-decoration="blink" font-family="微软雅黑" text-anchor="middle" font-size="13" x="80.0" y="13.325">前哨站 &gt; 100人</text><text id="ProcessOnText1021" fill="#000000" font-weight="normal" font-style="normal" text-decoration="blink" font-family="微软雅黑" text-anchor="middle" font-size="13" x="80.0" y="29.575">基地 &gt; 1000人</text><text id="ProcessOnText1022" fill="#000000" font-weight="normal" font-style="normal" text-decoration="blink" font-family="微软雅黑" text-anchor="middle" font-size="13" x="80.0" y="45.825">城市 &gt; 10000人</text></g></g><g id="ProcessOnG1023" transform="matrix(1.0,0.0,0.0,1.0,596.0,88.0)" opacity="1.0"><path id="ProcessOnPath1024" d="M0.0 0.0L160.0 0.0L160.0 40.0L0.0 40.0Z" stroke="#323232" stroke-width="0.0" stroke-dasharray="none" opacity="1.0" fill="none"/><g id="ProcessOnG1025" transform="matrix(1.0,0.0,0.0,1.0,0.0,3.75)"><text id="ProcessOnText1026" fill="#000000" font-weight="normal" font-style="normal" text-decoration="blink" font-family="微软雅黑" text-anchor="middle" font-size="13" x="80.0" y="13.325">子午线圈</text><text id="ProcessOnText1027" fill="#000000" font-weight="normal" font-style="normal" text-decoration="blink" font-family="微软雅黑" text-anchor="middle" font-size="13" x="80.0" y="29.575"></text></g></g><g id="ProcessOnG1028" transform="matrix(1.0,0.0,0.0,1.0,783.0,76.0)" opacity="1.0"><path id="ProcessOnPath1029" d="M0.0 0.0L100.0 0.0L100.0 70.0L0.0 70.0Z" stroke="#323232" stroke-width="2.0" stroke-dasharray="none" opacity="1.0" fill="#ffffff"/><g id="ProcessOnG1030" transform="matrix(1.0,0.0,0.0,1.0,10.0,26.875)"><text id="ProcessOnText1031" fill="#000000" font-weight="normal" font-style="normal" text-decoration="blink" font-family="微软雅黑" text-anchor="middle" font-size="13" x="40.0" y="13.325">地质工作站</text></g></g><g id="ProcessOnG1032" transform="matrix(1.0,0.0,0.0,1.0,783.0,278.0)" opacity="1.0"><path id="ProcessOnPath1033" d="M0.0 0.0L100.0 0.0L100.0 70.0L0.0 70.0Z" stroke="#323232" stroke-width="2.0" stroke-dasharray="none" opacity="1.0" fill="#ffffff"/><g id="ProcessOnG1034" transform="matrix(1.0,0.0,0.0,1.0,10.0,26.875)"><text id="ProcessOnText1035" fill="#000000" font-weight="normal" font-style="normal" text-decoration="blink" font-family="微软雅黑" text-anchor="middle" font-size="13" x="40.0" y="13.325">机场</text></g></g><g id="ProcessOnG1036" transform="matrix(1.0,0.0,0.0,1.0,1154.0,183.0)" opacity="1.0"><path id="ProcessOnPath1037" d="M0.0 0.0L100.0 0.0L100.0 70.0L0.0 70.0Z" stroke="#323232" stroke-width="2.0" stroke-dasharray="none" opacity="1.0" fill="#ffffff"/><g id="ProcessOnG1038" transform="matrix(1.0,0.0,0.0,1.0,10.0,26.875)"><text id="ProcessOnText1039" fill="#000000" font-weight="normal" font-style="normal" text-decoration="blink" font-family="微软雅黑" text-anchor="middle" font-size="13" x="40.0" y="13.325">子午线城市圈</text></g></g><g id="ProcessOnG1040" transform="matrix(1.0,0.0,0.0,1.0,999.0,76.0)" opacity="1.0"><path id="ProcessOnPath1041" d="M0.0 0.0L100.0 0.0L100.0 70.0L0.0 70.0Z" stroke="#323232" stroke-width="2.0" stroke-dasharray="none" opacity="1.0" fill="#ffffff"/><g id="ProcessOnG1042" transform="matrix(1.0,0.0,0.0,1.0,10.0,18.75)"><text id="ProcessOnText1043" fill="#000000" font-weight="normal" font-style="normal" text-decoration="blink" font-family="微软雅黑" text-anchor="middle" font-size="13" x="40.0" y="13.325">科研+教育（</text><text id="ProcessOnText1044" fill="#000000" font-weight="normal" font-style="normal" text-decoration="blink" font-family="微软雅黑" text-anchor="middle" font-size="13" x="40.0" y="29.575">城市9）</text></g></g><g id="ProcessOnG1045"><path id="ProcessOnPath1046" d="M883.0 111.0C929.4 111.0 952.6 111.0 983.7639320225002 111.0" stroke="#323232" stroke-width="2.0" stroke-dasharray="none" fill="none" marker-end="url(#ProcessOnMarker1047)"/></g><g id="ProcessOnG1049"><path id="ProcessOnPath1050" d="M1099.0 111.0C1147.1231752900824 111.0 1105.8768247099176 218.0 1138.7639320225003 218.0" stroke="#323232" stroke-width="2.0" stroke-dasharray="none" fill="none" marker-end="url(#ProcessOnMarker1051)"/></g><g id="ProcessOnG1053" transform="matrix(1.0,0.0,0.0,1.0,999.0,278.0)" opacity="1.0"><path id="ProcessOnPath1054" d="M0.0 0.0L100.0 0.0L100.0 70.0L0.0 70.0Z" stroke="#323232" stroke-width="2.0" stroke-dasharray="none" opacity="1.0" fill="#ffffff"/><g id="ProcessOnG1055" transform="matrix(1.0,0.0,0.0,1.0,10.0,18.75)"><text id="ProcessOnText1056" fill="#000000" font-weight="normal" font-style="normal" text-decoration="blink" font-family="微软雅黑" text-anchor="middle" font-size="13" x="40.0" y="13.325">航天（城市8</text><text id="ProcessOnText1057" fill="#000000" font-weight="normal" font-style="normal" text-decoration="blink" font-family="微软雅黑" text-anchor="middle" font-size="13" x="40.0" y="29.575">）</text></g></g><g id="ProcessOnG1058"><path id="ProcessOnPath1059" d="M883.0 313.0C929.4 313.0 952.6 313.0 983.7639320225002 313.0" stroke="#323232" stroke-width="2.0" stroke-dasharray="none" fill="none" marker-end="url(#ProcessOnMarker1060)"/></g><g id="ProcessOnG1062" transform="matrix(1.0,0.0,0.0,1.0,783.0,179.0)" opacity="1.0"><path id="ProcessOnPath1063" d="M0.0 0.0L100.0 0.0L100.0 70.0L0.0 70.0Z" stroke="#323232" stroke-width="2.0" stroke-dasharray="none" opacity="1.0" fill="#ffffff"/><g id="ProcessOnG1064" transform="matrix(1.0,0.0,0.0,1.0,10.0,26.875)"><text id="ProcessOnText1065" fill="#000000" font-weight="normal" font-style="normal" text-decoration="blink" font-family="微软雅黑" text-anchor="middle" font-size="13" x="40.0" y="13.325">地质工作站</text></g></g><g id="ProcessOnG1066"><path id="ProcessOnPath1067" d="M1099.0 313.0C1142.9089968002004 313.0 1110.0910031997996 218.0 1138.7639320225003 218.0" stroke="#323232" stroke-width="2.0" stroke-dasharray="none" fill="none" marker-end="url(#ProcessOnMarker1068)"/></g><g id="ProcessOnG1070" transform="matrix(1.0,0.0,0.0,1.0,1401.0,113.0)" opacity="1.0"><path id="ProcessOnPath1071" d="M0.0 0.0L521.0 0.0L521.0 150.0L0.0 150.0Z" stroke="#323232" stroke-width="0.0" stroke-dasharray="none" opacity="1.0" fill="none"/><g id="ProcessOnG1072" transform="matrix(1.0,0.0,0.0,1.0,0.0,10.0)"><text id="ProcessOnText1073" fill="#000000" font-weight="normal" font-style="normal" text-decoration="blink" font-family="微软雅黑" text-anchor="middle" font-size="13" x="260.5" y="13.325">城市历史</text><text id="ProcessOnText1074" fill="#000000" font-weight="normal" font-style="normal" text-decoration="blink" font-family="微软雅黑" text-anchor="middle" font-size="13" x="260.5" y="29.575"></text><text id="ProcessOnText1075" fill="#000000" font-weight="normal" font-style="normal" text-decoration="blink" font-family="微软雅黑" text-anchor="middle" font-size="13" x="260.5" y="45.825">有一段“圈地运动”时期，技术和资金达到之后，多家势力想要在火星发展，兴起了在火星</text><text id="ProcessOnText1076" fill="#000000" font-weight="normal" font-style="normal" text-decoration="blink" font-family="微软雅黑" text-anchor="middle" font-size="13" x="260.5" y="62.075">建造大型城市和基地（没有那么多充足的资金但是还想圈地）的运动。</text><text id="ProcessOnText1077" fill="#000000" font-weight="normal" font-style="normal" text-decoration="blink" font-family="微软雅黑" text-anchor="middle" font-size="13" x="260.5" y="78.325"></text><text id="ProcessOnText1078" fill="#000000" font-weight="normal" font-style="normal" text-decoration="blink" font-family="微软雅黑" text-anchor="middle" font-size="13" x="260.5" y="94.575">后来热潮已过，加上经济危机，大家停止了大型城市圈建造的运动。</text><text id="ProcessOnText1079" fill="#000000" font-weight="normal" font-style="normal" text-decoration="blink" font-family="微软雅黑" text-anchor="middle" font-size="13" x="260.5" y="110.825"></text><text id="ProcessOnText1080" fill="#000000" font-weight="normal" font-style="normal" text-decoration="blink" font-family="微软雅黑" text-anchor="middle" font-size="13" x="260.5" y="127.075">后面的发展的基本上仅仅是在原来的大型城市和很多的基地周围扩展。</text></g></g><g id="ProcessOnG1081" transform="matrix(1.0,0.0,0.0,1.0,2002.0,154.0)" opacity="1.0"><path id="ProcessOnPath1082" d="M0.0 0.0L160.0 0.0L160.0 40.0L0.0 40.0Z" stroke="#323232" stroke-width="0.0" stroke-dasharray="none" opacity="1.0" fill="none"/><g id="ProcessOnG1083" transform="matrix(1.0,0.0,0.0,1.0,0.0,11.875)"><text id="ProcessOnText1084" fill="#000000" font-weight="normal" font-style="normal" text-decoration="blink" font-family="微软雅黑" text-anchor="middle" font-size="13" x="80.0" y="13.325">行星工程的部分先去掉</text></g></g><g id="ProcessOnG1085" transform="matrix(1.0,0.0,0.0,1.0,115.0,462.0)" opacity="1.0"><path id="ProcessOnPath1086" d="M0.0 0.0L314.0 0.0L314.0 258.0L0.0 258.0Z" stroke="#323232" stroke-width="0.0" stroke-dasharray="none" opacity="1.0" fill="none"/><g id="ProcessOnG1087" transform="matrix(1.0,0.0,0.0,1.0,0.0,15.25)"><text id="ProcessOnText1088" fill="#000000" font-weight="normal" font-style="normal" text-decoration="blink" font-family="微软雅黑" text-anchor="middle" font-size="13" x="157.0" y="13.325">空间站发展</text><text id="ProcessOnText1089" fill="#000000" font-weight="normal" font-style="normal" text-decoration="blink" font-family="微软雅黑" text-anchor="middle" font-size="13" x="157.0" y="29.575"></text><text id="ProcessOnText1090" fill="#000000" font-weight="normal" font-style="normal" text-decoration="blink" font-family="微软雅黑" text-anchor="middle" font-size="13" x="157.0" y="45.825">3D打印</text><text id="ProcessOnText1091" fill="#000000" font-weight="normal" font-style="normal" text-decoration="blink" font-family="微软雅黑" text-anchor="middle" font-size="13" x="157.0" y="62.075">大型太阳能板</text><text id="ProcessOnText1092" fill="#000000" font-weight="normal" font-style="normal" text-decoration="blink" font-family="微软雅黑" text-anchor="middle" font-size="13" x="157.0" y="78.325">太空工业</text><text id="ProcessOnText1093" fill="#000000" font-weight="normal" font-style="normal" text-decoration="blink" font-family="微软雅黑" text-anchor="middle" font-size="13" x="157.0" y="94.575"></text><text id="ProcessOnText1094" fill="#000000" font-weight="normal" font-style="normal" text-decoration="blink" font-family="微软雅黑" text-anchor="middle" font-size="13" x="157.0" y="110.825"></text><text id="ProcessOnText1095" fill="#000000" font-weight="normal" font-style="normal" text-decoration="blink" font-family="微软雅黑" text-anchor="middle" font-size="13" x="157.0" y="127.075">2034年，采矿公司，启动 20m 直径小型旋转圆环空</text><text id="ProcessOnText1096" fill="#000000" font-weight="normal" font-style="normal" text-decoration="blink" font-family="微软雅黑" text-anchor="middle" font-size="13" x="157.0" y="143.325">间站计划。太空生产的模型。绕地球轨道。</text><text id="ProcessOnText1097" fill="#000000" font-weight="normal" font-style="normal" text-decoration="blink" font-family="微软雅黑" text-anchor="middle" font-size="13" x="157.0" y="159.575">2038年，200m 直径旋转空间站工厂开始。2040年建</text><text id="ProcessOnText1098" fill="#000000" font-weight="normal" font-style="normal" text-decoration="blink" font-family="微软雅黑" text-anchor="middle" font-size="13" x="157.0" y="175.825">成， 测试载人。近地轨道。十米宽度。</text><text id="ProcessOnText1099" fill="#000000" font-weight="normal" font-style="normal" text-decoration="blink" font-family="微软雅黑" text-anchor="middle" font-size="13" x="157.0" y="192.075"></text><text id="ProcessOnText1100" fill="#000000" font-weight="normal" font-style="normal" text-decoration="blink" font-family="微软雅黑" text-anchor="middle" font-size="13" x="157.0" y="208.325">此后有多个类似空间站建成</text><text id="ProcessOnText1101" fill="#000000" font-weight="normal" font-style="normal" text-decoration="blink" font-family="微软雅黑" text-anchor="middle" font-size="13" x="157.0" y="224.575"></text></g></g><g id="ProcessOnG1102" transform="matrix(1.0,0.0,0.0,1.0,108.0,312.0)" opacity="1.0"><path id="ProcessOnPath1103" d="M0.0 0.0L171.0 0.0L171.0 159.0L0.0 159.0Z" stroke="#323232" stroke-width="0.0" stroke-dasharray="none" opacity="1.0" fill="none"/><g id="ProcessOnG1104" transform="matrix(1.0,0.0,0.0,1.0,0.0,14.5)"><text id="ProcessOnText1105" fill="#000000" font-weight="normal" font-style="normal" text-decoration="blink" font-family="微软雅黑" text-anchor="middle" font-size="13" x="85.5" y="13.325">技术上讲</text><text id="ProcessOnText1106" fill="#000000" font-weight="normal" font-style="normal" text-decoration="blink" font-family="微软雅黑" text-anchor="middle" font-size="13" x="85.5" y="29.575"></text><text id="ProcessOnText1107" fill="#000000" font-weight="normal" font-style="normal" text-decoration="blink" font-family="微软雅黑" text-anchor="middle" font-size="13" x="85.5" y="45.825">热核火箭</text><text id="ProcessOnText1108" fill="#000000" font-weight="normal" font-style="normal" text-decoration="blink" font-family="微软雅黑" text-anchor="middle" font-size="13" x="85.5" y="62.075">小型核动力</text><text id="ProcessOnText1109" fill="#000000" font-weight="normal" font-style="normal" text-decoration="blink" font-family="微软雅黑" text-anchor="middle" font-size="13" x="85.5" y="78.325">离子推进器</text><text id="ProcessOnText1110" fill="#000000" font-weight="normal" font-style="normal" text-decoration="blink" font-family="微软雅黑" text-anchor="middle" font-size="13" x="85.5" y="94.575">太阳帆</text><text id="ProcessOnText1111" fill="#000000" font-weight="normal" font-style="normal" text-decoration="blink" font-family="微软雅黑" text-anchor="middle" font-size="13" x="85.5" y="110.825"></text><text id="ProcessOnText1112" fill="#000000" font-weight="normal" font-style="normal" text-decoration="blink" font-family="微软雅黑" text-anchor="middle" font-size="13" x="85.5" y="127.075"></text></g></g><g id="ProcessOnG1113" transform="matrix(1.0,0.0,0.0,1.0,401.0,672.0)" opacity="1.0"><path id="ProcessOnPath1114" d="M0.0 35.0C0.0 -11.666666666666666 70.0 -11.666666666666666 70.0 35.0C70.0 81.66666666666667 0.0 81.66666666666667 0.0 35.0Z" stroke="#323232" stroke-width="2.0" stroke-dasharray="none" opacity="1.0" fill="#ffffff"/></g><g id="ProcessOnG1115"><path id="ProcessOnPath1116" d="M434.0 672.0L436.0 742.0" stroke="#323232" stroke-width="2.0" stroke-dasharray="none" fill="none"/></g><g id="ProcessOnG1117" transform="matrix(1.0,0.0,0.0,1.0,437.0,677.0)" opacity="1.0"><path id="ProcessOnPath1118" d="M0.0 0.0L38.0 0.0L38.0 55.0L0.0 55.0Z" stroke="#323232" stroke-width="0.0" stroke-dasharray="none" opacity="1.0" fill="none"/><g id="ProcessOnG1119" transform="matrix(1.0,0.0,0.0,1.0,0.0,3.125)"><text id="ProcessOnText1120" fill="#000000" font-weight="normal" font-style="normal" text-decoration="blink" font-family="微软雅黑" text-anchor="middle" font-size="13" x="19.0" y="13.325">仓库</text><text id="ProcessOnText1121" fill="#000000" font-weight="normal" font-style="normal" text-decoration="blink" font-family="微软雅黑" text-anchor="middle" font-size="13" x="19.0" y="29.575">和设</text><text id="ProcessOnText1122" fill="#000000" font-weight="normal" font-style="normal" text-decoration="blink" font-family="微软雅黑" text-anchor="middle" font-size="13" x="19.0" y="45.825">备</text></g></g><g id="ProcessOnG1123" transform="matrix(1.0,0.0,0.0,1.0,395.0,679.5)" opacity="1.0"><path id="ProcessOnPath1124" d="M0.0 0.0L38.0 0.0L38.0 55.0L0.0 55.0Z" stroke="#323232" stroke-width="0.0" stroke-dasharray="none" opacity="1.0" fill="none"/><g id="ProcessOnG1125" transform="matrix(1.0,0.0,0.0,1.0,0.0,3.125)"><text id="ProcessOnText1126" fill="#000000" font-weight="normal" font-style="normal" text-decoration="blink" font-family="微软雅黑" text-anchor="middle" font-size="13" x="19.0" y="13.325">生活</text><text id="ProcessOnText1127" fill="#000000" font-weight="normal" font-style="normal" text-decoration="blink" font-family="微软雅黑" text-anchor="middle" font-size="13" x="19.0" y="29.575">工作</text><text id="ProcessOnText1128" fill="#000000" font-weight="normal" font-style="normal" text-decoration="blink" font-family="微软雅黑" text-anchor="middle" font-size="13" x="19.0" y="45.825">区</text></g></g><g id="ProcessOnG1129" transform="matrix(0.8191520442889918,0.573576436351046,-0.573576436351046,0.8191520442889918,1773.9084786962662,415.2873594498715)" opacity="1.0"><path id="ProcessOnPath1130" d="M0.0 0.0L72.0 0.0L72.0 38.0L0.0 38.0Z" stroke="#323232" stroke-width="2.0" stroke-dasharray="none" opacity="1.0" fill="#ffffff"/></g><g id="ProcessOnG1131" transform="matrix(1.0,0.0,0.0,1.0,1671.0,401.9499969482422)" opacity="1.0"><path id="ProcessOnPath1132" d="M0.0 0.0L72.0 0.0L72.0 38.0L0.0 38.0Z" stroke="#323232" stroke-width="2.0" stroke-dasharray="none" opacity="1.0" fill="#ffffff"/></g><g id="ProcessOnG1133" transform="matrix(1.0,0.0,0.0,1.0,507.0,541.5833129882812)" opacity="1.0"><path id="ProcessOnPath1134" d="M0.0 0.0L574.0 0.0L574.0 363.9666748046875L0.0 363.9666748046875Z" stroke="#323232" stroke-width="0.0" stroke-dasharray="none" opacity="1.0" fill="url(#ProcessOnPattern1135)"/></g><g id="ProcessOnG1137" transform="matrix(1.0,0.0,0.0,1.0,1129.5,509.066650390625)" opacity="1.0"><path id="ProcessOnPath1138" d="M0.0 0.0L332.0 0.0L332.0 511.0L0.0 511.0Z" stroke="#323232" stroke-width="0.0" stroke-dasharray="none" opacity="1.0" fill="url(#ProcessOnPattern1139)"/></g><g id="ProcessOnG1141" transform="matrix(1.0,0.0,0.0,1.0,507.0,930.1333618164062)" opacity="1.0"><path id="ProcessOnPath1142" d="M0.0 0.0L604.0 0.0L604.0 301.566650390625L0.0 301.566650390625Z" stroke="#323232" stroke-width="0.0" stroke-dasharray="none" opacity="1.0" fill="url(#ProcessOnPattern1143)"/></g><g id="ProcessOnG1145" transform="matrix(1.0,0.0,0.0,1.0,108.0,751.0)" opacity="1.0"><path id="ProcessOnPath1146" d="M0.0 0.0L224.73333740234375 0.0L224.73333740234375 335.79998779296875L0.0 335.79998779296875Z" stroke="#323232" stroke-width="0.0" stroke-dasharray="none" opacity="1.0" fill="none"/><g id="ProcessOnG1147" transform="matrix(1.0,0.0,0.0,1.0,0.0,62.274993896484375)"><text id="ProcessOnText1148" fill="#000000" font-weight="normal" font-style="normal" text-decoration="blink" font-family="微软雅黑" text-anchor="middle" font-size="13" x="112.36666870117188" y="13.325">太空城市</text><text id="ProcessOnText1149" fill="#000000" font-weight="normal" font-style="normal" text-decoration="blink" font-family="微软雅黑" text-anchor="middle" font-size="13" x="112.36666870117188" y="29.575"></text><text id="ProcessOnText1150" fill="#000000" font-weight="normal" font-style="normal" text-decoration="blink" font-family="微软雅黑" text-anchor="middle" font-size="13" x="112.36666870117188" y="45.825">两端封闭的圆筒形</text><text id="ProcessOnText1151" fill="#000000" font-weight="normal" font-style="normal" text-decoration="blink" font-family="微软雅黑" text-anchor="middle" font-size="13" x="112.36666870117188" y="62.075">中间有多处辐条</text><text id="ProcessOnText1152" fill="#000000" font-weight="normal" font-style="normal" text-decoration="blink" font-family="微软雅黑" text-anchor="middle" font-size="13" x="112.36666870117188" y="78.325"></text><text id="ProcessOnText1153" fill="#000000" font-weight="normal" font-style="normal" text-decoration="blink" font-family="微软雅黑" text-anchor="middle" font-size="13" x="112.36666870117188" y="94.575">可借助辐条来安装电梯快速到底对面</text><text id="ProcessOnText1154" fill="#000000" font-weight="normal" font-style="normal" text-decoration="blink" font-family="微软雅黑" text-anchor="middle" font-size="13" x="112.36666870117188" y="110.825"></text><text id="ProcessOnText1155" fill="#000000" font-weight="normal" font-style="normal" text-decoration="blink" font-family="微软雅黑" text-anchor="middle" font-size="13" x="112.36666870117188" y="127.075">第一个太空城市的规模：</text><text id="ProcessOnText1156" fill="#000000" font-weight="normal" font-style="normal" text-decoration="blink" font-family="微软雅黑" text-anchor="middle" font-size="13" x="112.36666870117188" y="143.325">直径 1km，轴长度 500m</text><text id="ProcessOnText1157" fill="#000000" font-weight="normal" font-style="normal" text-decoration="blink" font-family="微软雅黑" text-anchor="middle" font-size="13" x="112.36666870117188" y="159.575"></text><text id="ProcessOnText1158" fill="#000000" font-weight="normal" font-style="normal" text-decoration="blink" font-family="微软雅黑" text-anchor="middle" font-size="13" x="112.36666870117188" y="175.825">第二个太空城直径 2km，第一层直径 </text><text id="ProcessOnText1159" fill="#000000" font-weight="normal" font-style="normal" text-decoration="blink" font-family="微软雅黑" text-anchor="middle" font-size="13" x="112.36666870117188" y="192.075">1500m，三个六分之一平台</text><text id="ProcessOnText1160" fill="#000000" font-weight="normal" font-style="normal" text-decoration="blink" font-family="微软雅黑" text-anchor="middle" font-size="13" x="112.36666870117188" y="208.325">六根辐条，三根穿过第一层平台</text></g></g><g id="ProcessOnG1161" transform="matrix(1.0,0.0,0.0,1.0,98.0,1089.0)" opacity="1.0"><path id="ProcessOnPath1162" d="M0.0 151.5C0.0 -50.5 303.0 -50.5 303.0 151.5C303.0 353.5 0.0 353.5 0.0 151.5Z" stroke="#323232" stroke-width="2.0" stroke-dasharray="none" opacity="1.0" fill="#ffffff"/></g><g id="ProcessOnG1163" transform="matrix(1.0,0.0,0.0,1.0,241.74257425742576,1235.625)" opacity="1.0"><path id="ProcessOnPath1164" d="M0.0 11.875C0.0 -3.9583333333333335 23.514851485148515 -3.9583333333333335 23.514851485148515 11.875C23.514851485148515 27.708333333333332 0.0 27.708333333333332 0.0 11.875Z" stroke="#323232" stroke-width="2.0" stroke-dasharray="none" opacity="1.0" fill="#ffffff"/></g><g id="ProcessOnG1165" transform="matrix(1.0,0.0,0.0,1.0,140.96665954589844,1135.4000244140625)" opacity="1.0"><path id="ProcessOnPath1166" d="M0.0 108.0C0.0 -36.0 217.06668090820312 -36.0 217.06668090820312 108.0C217.06668090820312 252.0 0.0 252.0 0.0 108.0Z" stroke="#323232" stroke-width="2.0" stroke-dasharray="none" opacity="1.0" fill="#ffffff"/></g><g id="ProcessOnG1167"><path id="ProcessOnPath1168" d="M124.0 1325.0L382.28107663889006 1164.2678547852222" stroke="#323232" stroke-width="2.0" stroke-dasharray="none" fill="none"/></g><g id="ProcessOnG1169"><path id="ProcessOnPath1170" d="M115.0 1166.5999755859375L377.3685833345451 1323.0999755859375" stroke="#323232" stroke-width="2.0" stroke-dasharray="none" fill="none"/></g><g id="ProcessOnG1171"><path id="ProcessOnPath1172" d="M249.5 1089.0L249.5 1208.4000244140625" stroke="#323232" stroke-width="2.0" stroke-dasharray="none" fill="none"/></g><g id="ProcessOnG1173" transform="matrix(1.0,0.0,0.0,1.0,214.5,1208.4000244140625)" opacity="1.0"><path id="ProcessOnPath1174" d="M0.0 35.0C0.0 -11.666666666666666 70.0 -11.666666666666666 70.0 35.0C70.0 81.66666666666667 0.0 81.66666666666667 0.0 35.0Z" stroke="#323232" stroke-width="2.0" stroke-dasharray="none" opacity="1.0" fill="#ffffff"/></g><g id="ProcessOnG1175"><path id="ProcessOnPath1176" d="M249.5 1278.4000244140625L249.5 1392.0" stroke="#323232" stroke-width="2.0" stroke-dasharray="none" fill="none"/></g><g id="ProcessOnG1177" transform="matrix(1.0,0.0,0.0,1.0,95.03334045410156,1455.0)" opacity="1.0"><path id="ProcessOnPath1178" d="M0.0 0.0L767.4666595458984 0.0L767.4666595458984 343.29998779296875L0.0 343.29998779296875Z" stroke="#323232" stroke-width="0.0" stroke-dasharray="none" opacity="1.0" fill="url(#ProcessOnPattern1179)"/></g><g id="ProcessOnG1181" transform="matrix(1.0,0.0,0.0,1.0,1583.0,1278.4000244140625)" opacity="1.0"><path id="ProcessOnPath1182" d="M0.0 0.0L278.0 0.0L278.0 260.5999755859375L0.0 260.5999755859375Z" stroke="#323232" stroke-width="0.0" stroke-dasharray="none" opacity="1.0" fill="none"/><g id="ProcessOnG1183" transform="matrix(1.0,0.0,0.0,1.0,0.0,49.04998779296875)"><text id="ProcessOnText1184" fill="#000000" font-weight="normal" font-style="normal" text-decoration="blink" font-family="微软雅黑" text-anchor="middle" font-size="13" x="139.0" y="13.325">行星际通信中继</text><text id="ProcessOnText1185" fill="#000000" font-weight="normal" font-style="normal" text-decoration="blink" font-family="微软雅黑" text-anchor="middle" font-size="13" x="139.0" y="29.575"></text><text id="ProcessOnText1186" fill="#000000" font-weight="normal" font-style="normal" text-decoration="blink" font-family="微软雅黑" text-anchor="middle" font-size="13" x="139.0" y="45.825">星际通信公司的太阳极轨道中继卫星。</text><text id="ProcessOnText1187" fill="#000000" font-weight="normal" font-style="normal" text-decoration="blink" font-family="微软雅黑" text-anchor="middle" font-size="13" x="139.0" y="62.075">以及其他的辅助中继卫星，例如</text><text id="ProcessOnText1188" fill="#000000" font-weight="normal" font-style="normal" text-decoration="blink" font-family="微软雅黑" text-anchor="middle" font-size="13" x="139.0" y="78.325"></text><text id="ProcessOnText1189" fill="#000000" font-weight="normal" font-style="normal" text-decoration="blink" font-family="微软雅黑" text-anchor="middle" font-size="13" x="139.0" y="94.575">行星间直接通信</text><text id="ProcessOnText1190" fill="#000000" font-weight="normal" font-style="normal" text-decoration="blink" font-family="微软雅黑" text-anchor="middle" font-size="13" x="139.0" y="110.825"></text><text id="ProcessOnText1191" fill="#000000" font-weight="normal" font-style="normal" text-decoration="blink" font-family="微软雅黑" text-anchor="middle" font-size="13" x="139.0" y="127.075">新兴的 Home Range 通信（鸿雁通信）研发了</text><text id="ProcessOnText1192" fill="#000000" font-weight="normal" font-style="normal" text-decoration="blink" font-family="微软雅黑" text-anchor="middle" font-size="13" x="139.0" y="143.325">一条非开普勒轨道的中继系统。太阳帆非开普勒</text><text id="ProcessOnText1193" fill="#000000" font-weight="normal" font-style="normal" text-decoration="blink" font-family="微软雅黑" text-anchor="middle" font-size="13" x="139.0" y="159.575">轨道。</text></g></g></g></g></svg>