<svg xmlns="http://www.w3.org/2000/svg" xmlns:xlink="http://www.w3.org/1999/xlink" id="processonSvg1000" viewBox="154.41677117347717 417.7237319946289 1665.3332288265228 655.2762680053711" width="1665.3332288265228" height="655.2762680053711"><defs id="ProcessOnDefs1001"/><g id="ProcessOnG1002"><path id="ProcessOnPath1003" d="M154.41677117347717 417.7237319946289H1819.75V1073.0H154.41677117347717V417.7237319946289Z" fill="#ffffff"/><g id="ProcessOnG1004"><g id="ProcessOnG1005" transform="matrix(1.0,0.0,0.0,1.0,1042.2546997070312,437.7237319946289)" opacity="1.0"><path id="ProcessOnPath1006" d="M0.0 4.0Q0.0 0.0 4.0 0.0L210.99530029296875 0.0Q214.99530029296875 0.0 214.99530029296875 4.0L214.99530029296875 70.0262680053711Q214.99530029296875 74.0262680053711 210.99530029296875 74.0262680053711L4.0 74.0262680053711Q0.0 74.0262680053711 0.0 70.0262680053711Z" stroke="#323232" stroke-width="2.0" stroke-dasharray="none" opacity="1.0" fill="#cfcfcf"/><g id="ProcessOnG1007" transform="matrix(1.0,0.0,0.0,1.0,10.0,19.513134002685547)"><text id="ProcessOnText1008" fill="#000000" font-weight="bold" font-style="normal" text-decoration="blink" font-family="微软雅黑" text-anchor="middle" font-size="28" x="97.49765014648438" y="28.700000000000003">星际移民局</text></g></g><g id="ProcessOnG1009" transform="matrix(1.0,0.0,0.0,1.0,496.7777777777778,679.0)" opacity="1.0"><path id="ProcessOnPath1010" d="M0.0 4.0Q0.0 0.0 4.0 0.0L252.00469970703125 0.0Q256.00469970703125 0.0 256.00469970703125 4.0L256.00469970703125 59.026268005371094Q256.00469970703125 63.026268005371094 252.00469970703125 63.026268005371094L4.0 63.026268005371094Q0.0 63.026268005371094 0.0 59.026268005371094Z" stroke="#323232" stroke-width="2.0" stroke-dasharray="none" opacity="1.0" fill="#ccff99"/><g id="ProcessOnG1011" transform="matrix(1.0,0.0,0.0,1.0,10.0,23.388134002685547)"><text id="ProcessOnText1012" fill="#000000" font-weight="normal" font-style="normal" text-decoration="blink" font-family="微软雅黑" text-anchor="middle" font-size="13" x="118.00234985351562" y="13.325">星际移民中心（火星）</text></g></g><g id="ProcessOnG1013"><path id="ProcessOnPath1014" d="M1149.7523498535156 511.75L1149.7523498535156 595.375L624.7801276312935 595.375L624.7801276312935 679.0" stroke="#323232" stroke-width="2.0" stroke-dasharray="none" fill="none"/></g><g id="ProcessOnG1015" transform="matrix(1.0,0.0,0.0,1.0,354.00469970703125,840.0)" opacity="1.0"><path id="ProcessOnPath1016" d="M0.0 0.0L160.0 0.0L160.0 68.0L0.0 68.0Z" stroke="#323232" stroke-width="2.0" stroke-dasharray="none" opacity="1.0" fill="#ccff99"/><g id="ProcessOnG1017" transform="matrix(1.0,0.0,0.0,1.0,10.0,25.875)"><text id="ProcessOnText1018" fill="#000000" font-weight="normal" font-style="normal" text-decoration="blink" font-family="微软雅黑" text-anchor="middle" font-size="13" x="70.0" y="13.325">研发部</text></g></g><g id="ProcessOnG1019" transform="matrix(1.0,0.0,0.0,1.0,544.7801276312935,840.0)" opacity="1.0"><path id="ProcessOnPath1020" d="M0.0 0.0L160.0 0.0L160.0 68.0L0.0 68.0Z" stroke="#323232" stroke-width="2.0" stroke-dasharray="none" opacity="1.0" fill="#ccff99"/><g id="ProcessOnG1021" transform="matrix(1.0,0.0,0.0,1.0,10.0,25.875)"><text id="ProcessOnText1022" fill="#000000" font-weight="normal" font-style="normal" text-decoration="blink" font-family="微软雅黑" text-anchor="middle" font-size="13" x="70.0" y="13.325">培训部</text></g></g><g id="ProcessOnG1023"><path id="ProcessOnPath1024" d="M624.7801276312935 742.0262680053711L624.7801276312935 791.0131340026855L434.00469970703125 791.0131340026855L434.00469970703125 840.0" stroke="#323232" stroke-width="2.0" stroke-dasharray="none" fill="none"/></g><g id="ProcessOnG1025"><path id="ProcessOnPath1026" d="M624.7801276312935 742.0262680053711L624.7801276312935 791.0131340026855L624.7801276312935 791.0131340026855L624.7801276312935 840.0" stroke="#323232" stroke-width="2.0" stroke-dasharray="none" fill="none"/></g><g id="ProcessOnG1027" transform="matrix(1.0,0.0,0.0,1.0,813.0,443.2237319946289)" opacity="1.0"><path id="ProcessOnPath1028" d="M0.0 0.0L145.00469970703125 0.0L145.00469970703125 63.026268005371094L0.0 63.026268005371094Z" stroke="#323232" stroke-width="2.0" stroke-dasharray="none" opacity="1.0" fill="#ffffff"/><g id="ProcessOnG1029" transform="matrix(1.0,0.0,0.0,1.0,10.0,23.388134002685547)"><text id="ProcessOnText1030" fill="#000000" font-weight="normal" font-style="normal" text-decoration="blink" font-family="微软雅黑" text-anchor="middle" font-size="13" x="62.502349853515625" y="13.325">驻地办</text></g></g><g id="ProcessOnG1031" transform="matrix(1.0,0.0,0.0,1.0,964.3888888888885,842.0)" opacity="1.0"><path id="ProcessOnPath1032" d="M0.0 0.0L123.0 0.0L123.0 70.0L0.0 70.0Z" stroke="#323232" stroke-width="2.0" stroke-dasharray="none" opacity="1.0" fill="#99ccff"/><g id="ProcessOnG1033" transform="matrix(1.0,0.0,0.0,1.0,10.0,26.875)"><text id="ProcessOnText1034" fill="#000000" font-weight="normal" font-style="normal" text-decoration="blink" font-family="微软雅黑" text-anchor="middle" font-size="13" x="51.5" y="13.325">小行星事务部</text></g></g><g id="ProcessOnG1035" transform="matrix(1.0,0.0,0.0,1.0,731.1111111111113,841.221435546875)" opacity="1.0"><path id="ProcessOnPath1036" d="M0.0 0.0L160.0 0.0L160.0 68.0L0.0 68.0Z" stroke="#323232" stroke-width="2.0" stroke-dasharray="none" opacity="1.0" fill="#ccff99"/><g id="ProcessOnG1037" transform="matrix(1.0,0.0,0.0,1.0,10.0,25.875)"><text id="ProcessOnText1038" fill="#000000" font-weight="normal" font-style="normal" text-decoration="blink" font-family="微软雅黑" text-anchor="middle" font-size="13" x="70.0" y="13.325">宣传部</text></g></g><g id="ProcessOnG1039"><path id="ProcessOnPath1040" d="M624.7801276312935 742.0262680053711L624.7801276312935 791.623851776123L811.1111111111113 791.623851776123L811.1111111111113 841.221435546875" stroke="#323232" stroke-width="2.0" stroke-dasharray="none" fill="none"/></g><g id="ProcessOnG1041" transform="matrix(1.0,0.0,0.0,1.0,1040.6944529215496,688.0)" opacity="1.0"><path id="ProcessOnPath1042" d="M0.0 0.0L219.30554707845045 0.0L219.30554707845045 62.221435546875L0.0 62.221435546875Z" stroke="#323232" stroke-width="2.0" stroke-dasharray="none" opacity="1.0" fill="#99ccff"/><g id="ProcessOnG1043" transform="matrix(1.0,0.0,0.0,1.0,10.0,22.9857177734375)"><text id="ProcessOnText1044" fill="#000000" font-weight="normal" font-style="normal" text-decoration="blink" font-family="微软雅黑" text-anchor="middle" font-size="13" x="99.65277353922522" y="13.325">星际贸易中心（星贸中心）</text></g></g><g id="ProcessOnG1045"><path id="ProcessOnPath1046" d="M1149.7523498535156 511.75L1149.7523498535156 599.875L1150.3472264607751 599.875L1150.3472264607751 688.0" stroke="#323232" stroke-width="2.0" stroke-dasharray="none" fill="none"/></g><g id="ProcessOnG1047" transform="matrix(1.0,0.0,0.0,1.0,646.5023498535156,439.73686599731445)" opacity="1.0"><path id="ProcessOnPath1048" d="M0.0 4.0Q0.0 0.0 4.0 0.0L96.0 0.0Q100.0 0.0 100.0 4.0L100.0 66.0Q100.0 70.0 96.0 70.0L4.0 70.0Q0.0 70.0 0.0 66.0Z" stroke="#323232" stroke-width="2.0" stroke-dasharray="none" opacity="1.0" fill="#ffffff"/><g id="ProcessOnG1049" transform="matrix(1.0,0.0,0.0,1.0,10.0,26.875)"><text id="ProcessOnText1050" fill="#000000" font-weight="normal" font-style="normal" text-decoration="blink" font-family="微软雅黑" text-anchor="middle" font-size="13" x="40.0" y="13.325">移民登记处</text></g></g><g id="ProcessOnG1051" transform="matrix(1.0,0.0,0.0,1.0,1222.513916015625,843.0)" opacity="1.0"><path id="ProcessOnPath1052" d="M0.0 0.0L123.0 0.0L123.0 70.0L0.0 70.0Z" stroke="#323232" stroke-width="2.0" stroke-dasharray="none" opacity="1.0" fill="#99ccff"/><g id="ProcessOnG1053" transform="matrix(1.0,0.0,0.0,1.0,10.0,26.875)"><text id="ProcessOnText1054" fill="#000000" font-weight="normal" font-style="normal" text-decoration="blink" font-family="微软雅黑" text-anchor="middle" font-size="13" x="51.5" y="13.325">地火贸易部</text></g></g><g id="ProcessOnG1055"><path id="ProcessOnPath1056" d="M1025.8888888888885 842.0L1025.8888888888885 796.1107177734375L1150.3472264607751 796.1107177734375L1150.3472264607751 750.221435546875" stroke="#323232" stroke-width="2.0" stroke-dasharray="none" fill="none"/></g><g id="ProcessOnG1057"><path id="ProcessOnPath1058" d="M1284.013916015625 843.0L1284.013916015625 796.6107177734375L1150.3472264607751 796.6107177734375L1150.3472264607751 750.221435546875" stroke="#323232" stroke-width="2.0" stroke-dasharray="none" fill="none"/></g><g id="ProcessOnG1059" transform="matrix(1.0,0.0,0.0,1.0,1503.4444529215496,679.402416229248)" opacity="1.0"><path id="ProcessOnPath1060" d="M0.0 0.0L219.30554707845045 0.0L219.30554707845045 62.221435546875L0.0 62.221435546875Z" stroke="#323232" stroke-width="2.0" stroke-dasharray="none" opacity="1.0" fill="#ffe6cc"/><g id="ProcessOnG1061" transform="matrix(1.0,0.0,0.0,1.0,10.0,22.9857177734375)"><text id="ProcessOnText1062" fill="#000000" font-weight="normal" font-style="normal" text-decoration="blink" font-family="微软雅黑" text-anchor="middle" font-size="13" x="99.65277353922522" y="13.325">星际运输中心</text></g></g><g id="ProcessOnG1063"><path id="ProcessOnPath1064" d="M1613.097226460775 679.402416229248L1613.097226460775 595.576208114624L1149.7523498535156 595.576208114624L1149.7523498535156 511.75" stroke="#323232" stroke-width="2.0" stroke-dasharray="none" fill="none"/></g><g id="ProcessOnG1065" transform="matrix(1.0,0.0,0.0,1.0,174.41677117347717,983.0)" opacity="1.0"><path id="ProcessOnPath1066" d="M0.0 4.0Q0.0 0.0 4.0 0.0L96.0 0.0Q100.0 0.0 100.0 4.0L100.0 66.0Q100.0 70.0 96.0 70.0L4.0 70.0Q0.0 70.0 0.0 66.0Z" stroke="#323232" stroke-width="2.0" stroke-dasharray="none" opacity="1.0" fill="#ccff99"/><g id="ProcessOnG1067" transform="matrix(1.0,0.0,0.0,1.0,10.0,26.875)"><text id="ProcessOnText1068" fill="#000000" font-weight="normal" font-style="normal" text-decoration="blink" font-family="微软雅黑" text-anchor="middle" font-size="13" x="40.0" y="13.325">推进技术</text></g></g><g id="ProcessOnG1069" transform="matrix(1.0,0.0,0.0,1.0,323.94608068466187,983.0)" opacity="1.0"><path id="ProcessOnPath1070" d="M0.0 4.0Q0.0 0.0 4.0 0.0L96.0 0.0Q100.0 0.0 100.0 4.0L100.0 66.0Q100.0 70.0 96.0 70.0L4.0 70.0Q0.0 70.0 0.0 66.0Z" stroke="#323232" stroke-width="2.0" stroke-dasharray="none" opacity="1.0" fill="#ccff99"/><g id="ProcessOnG1071" transform="matrix(1.0,0.0,0.0,1.0,10.0,26.875)"><text id="ProcessOnText1072" fill="#000000" font-weight="normal" font-style="normal" text-decoration="blink" font-family="微软雅黑" text-anchor="middle" font-size="13" x="40.0" y="13.325">系外行星</text></g></g><g id="ProcessOnG1073"><path id="ProcessOnPath1074" d="M1042.2546997070312 474.73686599731445L1000.1296997070312 474.73686599731445L1000.1296997070312 474.73686599731445L958.0046997070312 474.73686599731445" stroke="#323232" stroke-width="2.0" stroke-dasharray="none" fill="none"/></g><g id="ProcessOnG1075"><path id="ProcessOnPath1076" d="M813.0 474.73686599731445L779.7511749267578 474.73686599731445L779.7511749267578 474.73686599731445L746.5023498535156 474.73686599731445" stroke="#323232" stroke-width="2.0" stroke-dasharray="none" fill="none"/></g><g id="ProcessOnG1077" transform="matrix(1.0,0.0,0.0,1.0,473.47539019584656,983.0)" opacity="1.0"><path id="ProcessOnPath1078" d="M0.0 4.0Q0.0 0.0 4.0 0.0L96.0 0.0Q100.0 0.0 100.0 4.0L100.0 66.0Q100.0 70.0 96.0 70.0L4.0 70.0Q0.0 70.0 0.0 66.0Z" stroke="#323232" stroke-width="2.0" stroke-dasharray="none" opacity="1.0" fill="#ccff99"/><g id="ProcessOnG1079" transform="matrix(1.0,0.0,0.0,1.0,10.0,26.875)"><text id="ProcessOnText1080" fill="#000000" font-weight="normal" font-style="normal" text-decoration="blink" font-family="微软雅黑" text-anchor="middle" font-size="13" x="40.0" y="13.325">飞行器</text></g></g><g id="ProcessOnG1081" transform="matrix(1.0,0.0,0.0,1.0,1418.172860622406,847.0)" opacity="1.0"><path id="ProcessOnPath1082" d="M0.0 0.0L113.577139377594 0.0L113.577139377594 62.221435546875L0.0 62.221435546875Z" stroke="#323232" stroke-width="2.0" stroke-dasharray="none" opacity="1.0" fill="#ffe6cc"/><g id="ProcessOnG1083" transform="matrix(1.0,0.0,0.0,1.0,10.0,22.9857177734375)"><text id="ProcessOnText1084" fill="#000000" font-weight="normal" font-style="normal" text-decoration="blink" font-family="微软雅黑" text-anchor="middle" font-size="13" x="46.788569688797" y="13.325">火星运输部</text></g></g><g id="ProcessOnG1085" transform="matrix(1.0,0.0,0.0,1.0,1686.172860622406,847.0)" opacity="1.0"><path id="ProcessOnPath1086" d="M0.0 0.0L113.577139377594 0.0L113.577139377594 62.221435546875L0.0 62.221435546875Z" stroke="#323232" stroke-width="2.0" stroke-dasharray="none" opacity="1.0" fill="#ffe6cc"/><g id="ProcessOnG1087" transform="matrix(1.0,0.0,0.0,1.0,10.0,22.9857177734375)"><text id="ProcessOnText1088" fill="#000000" font-weight="normal" font-style="normal" text-decoration="blink" font-family="微软雅黑" text-anchor="middle" font-size="13" x="46.788569688797" y="13.325">轨道运输部</text></g></g><g id="ProcessOnG1089"><path id="ProcessOnPath1090" d="M1474.961430311203 847.0L1474.961430311203 794.3119258880615L1613.097226460775 794.3119258880615L1613.097226460775 741.623851776123" stroke="#323232" stroke-width="2.0" stroke-dasharray="none" fill="none"/></g><g id="ProcessOnG1091"><path id="ProcessOnPath1092" d="M1742.961430311203 847.0L1742.961430311203 794.3119258880615L1613.097226460775 794.3119258880615L1613.097226460775 741.623851776123" stroke="#323232" stroke-width="2.0" stroke-dasharray="none" fill="none"/></g><g id="ProcessOnG1093"><path id="ProcessOnPath1094" d="M217.41677117347717 983.0L217.41677117347717 945.5L434.00469970703125 945.5L434.00469970703125 908.0" stroke="#323232" stroke-width="2.0" stroke-dasharray="none" fill="none"/></g><g id="ProcessOnG1095"><path id="ProcessOnPath1096" d="M373.94608068466187 983.0L373.94608068466187 945.5L434.00469970703125 945.5L434.00469970703125 908.0" stroke="#323232" stroke-width="2.0" stroke-dasharray="none" fill="none"/></g><g id="ProcessOnG1097"><path id="ProcessOnPath1098" d="M523.4753901958466 983.0L523.4753901958466 945.5L434.00469970703125 945.5L434.00469970703125 908.0" stroke="#323232" stroke-width="2.0" stroke-dasharray="none" fill="none"/></g><g id="ProcessOnG1099" transform="matrix(1.0,0.0,0.0,1.0,759.6111111111113,987.1215362548828)" opacity="1.0"><path id="ProcessOnPath1100" d="M0.0 0.0L103.0 0.0L103.0 64.0L0.0 64.0Z" stroke="#323232" stroke-width="2.0" stroke-dasharray="none" opacity="1.0" fill="#ccff99"/><g id="ProcessOnG1101" transform="matrix(1.0,0.0,0.0,1.0,10.0,23.875)"><text id="ProcessOnText1102" fill="#000000" font-weight="normal" font-style="normal" text-decoration="blink" font-family="微软雅黑" text-anchor="middle" font-size="13" x="41.5" y="13.325">档案馆</text></g></g><g id="ProcessOnG1103"><path id="ProcessOnPath1104" d="M811.1111111111113 909.221435546875L811.1111111111113 948.1714859008789L811.1111111111113 948.1714859008789L811.1111111111113 987.1215362548828" stroke="#323232" stroke-width="2.0" stroke-dasharray="none" fill="none"/></g><g id="ProcessOnG1105" transform="matrix(1.0,0.0,0.0,1.0,1345.513916015625,439.73686599731445)" opacity="1.0"><path id="ProcessOnPath1106" d="M0.0 0.0L186.236083984375 0.0L186.236083984375 70.0L0.0 70.0Z" stroke="#ffffff" stroke-width="2.0" stroke-dasharray="none" opacity="1.0" fill="#000000"/><g id="ProcessOnG1107" transform="matrix(1.0,0.0,0.0,1.0,10.0,26.875)"><text id="ProcessOnText1108" fill="#ffffff" font-weight="normal" font-style="normal" text-decoration="blink" font-family="微软雅黑" text-anchor="middle" font-size="13" x="83.1180419921875" y="13.325">特殊事务部</text></g></g><g id="ProcessOnG1109"><path id="ProcessOnPath1110" d="M1257.25 474.73686599731445L1301.3819580078125 474.73686599731445L1301.3819580078125 474.73686599731445L1345.513916015625 474.73686599731445" stroke="#323232" stroke-width="2.0" stroke-dasharray="10.0 4.0" fill="none"/></g><g id="ProcessOnG1111" transform="matrix(1.0,0.0,0.0,1.0,623.0046997070312,983.0)" opacity="1.0"><path id="ProcessOnPath1112" d="M0.0 4.0Q0.0 0.0 4.0 0.0L96.0 0.0Q100.0 0.0 100.0 4.0L100.0 66.0Q100.0 70.0 96.0 70.0L4.0 70.0Q0.0 70.0 0.0 66.0Z" stroke="#323232" stroke-width="2.0" stroke-dasharray="none" opacity="1.0" fill="#ccff99"/><g id="ProcessOnG1113" transform="matrix(1.0,0.0,0.0,1.0,10.0,26.875)"><text id="ProcessOnText1114" fill="#000000" font-weight="normal" font-style="normal" text-decoration="blink" font-family="微软雅黑" text-anchor="middle" font-size="13" x="40.0" y="13.325">行星工程</text></g></g><g id="ProcessOnG1115"><path id="ProcessOnPath1116" d="M673.0046997070312 983.0L673.0046997070312 945.5L434.00469970703125 945.5L434.00469970703125 908.0" stroke="#323232" stroke-width="2.0" stroke-dasharray="none" fill="none"/></g></g></g></svg>